{
copyright = "Copyright \U00A9 2013 by Daigo Fujiwara. See LICENSE";
date = "2013-09-07 15:30:27 +0000";
designer = "Daigo Fujiwara";
designerURL = "http://daigofuji.github.com";
familyName = "BBClubFont";
featurePrefixes = (
{
automatic = 1;
code = "languagesystem DFLT dflt;\012languagesystem latn dflt;\012";
name = Languagesystems;
}
);
fontMaster = (
{
ascender = 800;
capHeight = 700;
descender = "-200";
id = "D4A81252-B0CF-4F3E-9514-5651FCA26467";
xHeight = 500;
}
);
glyphs = (
{
glyphname = A;
lastChange = "2013-09-07 21:54:48 -0500";
layers = (
{
layerId = "D4A81252-B0CF-4F3E-9514-5651FCA26467";
name = Regular;
paths = (
{
closed = 1;
nodes = (
"438 288 OFFCURVE",
"435 325 OFFCURVE",
"399 351 CURVE",
"435 376 OFFCURVE",
"438 413 OFFCURVE",
"444 431 CURVE SMOOTH",
"454 463 OFFCURVE",
"462 481 OFFCURVE",
"484 495 CURVE",
"404 542 OFFCURVE",
"443 584 OFFCURVE",
"376 651 CURVE SMOOTH",
"318 708 OFFCURVE",
"228 713 OFFCURVE",
"166 665 CURVE",
"148 684 OFFCURVE",
"123 696 OFFCURVE",
"95 696 CURVE SMOOTH",
"42 696 OFFCURVE",
"0 654 OFFCURVE",
"0 602 CURVE SMOOTH",
"0 591 OFFCURVE",
"2 580 OFFCURVE",
"6 569 CURVE",
"15 588 OFFCURVE",
"32 601 OFFCURVE",
"53 601 CURVE SMOOTH",
"84 601 OFFCURVE",
"108 575 OFFCURVE",
"108 542 CURVE SMOOTH",
"108 434 LINE SMOOTH",
"108 423 OFFCURVE",
"104 374 OFFCURVE",
"39 351 CURVE",
"104 327 OFFCURVE",
"108 278 OFFCURVE",
"108 267 CURVE SMOOTH",
"108 158 LINE SMOOTH",
"108 126 OFFCURVE",
"84 100 OFFCURVE",
"53 100 CURVE SMOOTH",
"32 100 OFFCURVE",
"15 113 OFFCURVE",
"6 132 CURVE",
"2 121 OFFCURVE",
"0 110 OFFCURVE",
"0 99 CURVE SMOOTH",
"0 47 OFFCURVE",
"42 5 OFFCURVE",
"95 5 CURVE SMOOTH",
"123 5 OFFCURVE",
"148 17 OFFCURVE",
"166 36 CURVE",
"228 -12 OFFCURVE",
"318 -7 OFFCURVE",
"376 50 CURVE SMOOTH",
"443 117 OFFCURVE",
"404 159 OFFCURVE",
"484 206 CURVE",
"462 220 OFFCURVE",
"454 238 OFFCURVE",
"444 270 CURVE SMOOTH"
);
},
{
closed = 1;
nodes = (
"396 113 OFFCURVE",
"388 92 OFFCURVE",
"361 65 CURVE SMOOTH",
"307 11 OFFCURVE",
"218 13 OFFCURVE",
"163 67 CURVE",
"152 41 OFFCURVE",
"124 26 OFFCURVE",
"95 26 CURVE SMOOTH",
"59 26 OFFCURVE",
"29 51 OFFCURVE",
"22 86 CURVE",
"32 82 OFFCURVE",
"42 79 OFFCURVE",
"53 79 CURVE SMOOTH",
"95 79 OFFCURVE",
"129 115 OFFCURVE",
"129 158 CURVE SMOOTH",
"129 267 LINE SMOOTH",
"129 285 OFFCURVE",
"121 323 OFFCURVE",
"85 351 CURVE",
"121 378 OFFCURVE",
"129 416 OFFCURVE",
"129 434 CURVE SMOOTH",
"129 542 LINE SMOOTH",
"129 586 OFFCURVE",
"95 622 OFFCURVE",
"53 622 CURVE SMOOTH",
"42 622 OFFCURVE",
"32 619 OFFCURVE",
"22 615 CURVE",
"29 650 OFFCURVE",
"59 675 OFFCURVE",
"95 675 CURVE SMOOTH",
"124 675 OFFCURVE",
"152 660 OFFCURVE",
"163 634 CURVE",
"218 688 OFFCURVE",
"307 690 OFFCURVE",
"361 636 CURVE SMOOTH",
"388 609 OFFCURVE",
"396 588 OFFCURVE",
"403 566 CURVE SMOOTH",
"411 542 OFFCURVE",
"420 518 OFFCURVE",
"450 492 CURVE",
"437 477 OFFCURVE",
"432 459 OFFCURVE",
"424 439 CURVE SMOOTH",
"422 434 OFFCURVE",
"421 430 OFFCURVE",
"420 424 CURVE SMOOTH",
"417 409 OFFCURVE",
"402 371 OFFCURVE",
"370 351 CURVE",
"402 329 OFFCURVE",
"417 292 OFFCURVE",
"420 277 CURVE SMOOTH",
"421 271 OFFCURVE",
"422 267 OFFCURVE",
"424 262 CURVE SMOOTH",
"432 242 OFFCURVE",
"437 224 OFFCURVE",
"450 208 CURVE",
"420 183 OFFCURVE",
"411 159 OFFCURVE",
"403 135 CURVE SMOOTH"
);
},
{
closed = 1;
nodes = (
"230 609 OFFCURVE",
"201 592 OFFCURVE",
"187 569 CURVE",
"187 418 LINE",
"201 394 OFFCURVE",
"230 378 OFFCURVE",
"262 378 CURVE SMOOTH",
"310 378 OFFCURVE",
"348 411 OFFCURVE",
"348 454 CURVE SMOOTH",
"348 467 OFFCURVE",
"343 481 OFFCURVE",
"335 493 CURVE",
"343 505 OFFCURVE",
"348 519 OFFCURVE",
"348 534 CURVE SMOOTH",
"348 575 OFFCURVE",
"310 609 OFFCURVE",
"262 609 CURVE SMOOTH"
);
},
{
closed = 1;
nodes = (
"327 423 OFFCURVE",
"298 399 OFFCURVE",
"262 399 CURVE SMOOTH",
"240 399 OFFCURVE",
"220 409 OFFCURVE",
"208 424 CURVE",
"208 563 LINE",
"220 578 OFFCURVE",
"240 588 OFFCURVE",
"262 588 CURVE SMOOTH",
"298 588 OFFCURVE",
"327 564 OFFCURVE",
"327 534 CURVE SMOOTH",
"327 518 OFFCURVE",
"318 504 OFFCURVE",
"305 493 CURVE",
"318 483 OFFCURVE",
"327 469 OFFCURVE",
"327 454 CURVE SMOOTH"
);
},
{
closed = 1;
nodes = (
"230 323 OFFCURVE",
"201 306 OFFCURVE",
"187 283 CURVE",
"187 132 LINE",
"201 109 OFFCURVE",
"230 92 OFFCURVE",
"262 92 CURVE SMOOTH",
"310 92 OFFCURVE",
"348 126 OFFCURVE",
"348 167 CURVE SMOOTH",
"348 182 OFFCURVE",
"343 195 OFFCURVE",
"335 208 CURVE",
"343 220 OFFCURVE",
"348 233 OFFCURVE",
"348 247 CURVE SMOOTH",
"348 289 OFFCURVE",
"310 323 OFFCURVE",
"262 323 CURVE SMOOTH"
);
},
{
closed = 1;
nodes = (
"327 137 OFFCURVE",
"298 113 OFFCURVE",
"262 113 CURVE SMOOTH",
"240 113 OFFCURVE",
"220 123 OFFCURVE",
"208 138 CURVE",
"208 277 LINE",
"220 292 OFFCURVE",
"240 302 OFFCURVE",
"262 302 CURVE SMOOTH",
"298 302 OFFCURVE",
"327 278 OFFCURVE",
"327 247 CURVE SMOOTH",
"327 232 OFFCURVE",
"318 218 OFFCURVE",
"305 208 CURVE",
"318 197 OFFCURVE",
"327 183 OFFCURVE",
"327 167 CURVE SMOOTH"
);
}
);
width = 484;
}
);
unicode = 0041;
},
{
glyphname = B;
lastChange = "2013-09-07 21:48:14 -0500";
layers = (
{
layerId = "D4A81252-B0CF-4F3E-9514-5651FCA26467";
name = Regular;
paths = (
{
closed = 1;
nodes = (
"558 142 OFFCURVE",
"530 264 OFFCURVE",
"535 331 CURVE SMOOTH",
"535 340 OFFCURVE",
"529 459 OFFCURVE",
"622 498 CURVE",
"597 523 OFFCURVE",
"563 546 OFFCURVE",
"536 553 CURVE",
"479 514 OFFCURVE",
"435 385 OFFCURVE",
"478 214 CURVE",
"438 261 OFFCURVE",
"388 292 OFFCURVE",
"360 316 CURVE",
"388 371 OFFCURVE",
"437 496 OFFCURVE",
"455 529 CURVE SMOOTH",
"474 560 OFFCURVE",
"489 577 OFFCURVE",
"521 583 CURVE",
"506 614 OFFCURVE",
"441 674 OFFCURVE",
"411 690 CURVE",
"417 659 OFFCURVE",
"417 617 OFFCURVE",
"403 569 CURVE SMOOTH",
"389 522 OFFCURVE",
"337 413 OFFCURVE",
"322 387 CURVE",
"294 437 OFFCURVE",
"270 505 OFFCURVE",
"253 560 CURVE SMOOTH",
"239 615 OFFCURVE",
"240 648 OFFCURVE",
"255 700 CURVE",
"221 688 OFFCURVE",
"155 640 OFFCURVE",
"136 594 CURVE",
"166 578 OFFCURVE",
"214 533 OFFCURVE",
"251 396 CURVE",
"202 426 OFFCURVE",
"135 497 OFFCURVE",
"105 585 CURVE",
"75 571 OFFCURVE",
"39 537 OFFCURVE",
"14 500 CURVE",
"144 373 OFFCURVE",
"84 233 OFFCURVE",
"1 90 CURVE",
"30 53 OFFCURVE",
"90 13 OFFCURVE",
"105 5 CURVE",
"102 44 OFFCURVE",
"108 83 OFFCURVE",
"111 103 CURVE SMOOTH",
"118 160 OFFCURVE",
"178 316 OFFCURVE",
"130 442 CURVE",
"182 386 OFFCURVE",
"223 350 OFFCURVE",
"268 317 CURVE",
"273 300 LINE",
"275 232 OFFCURVE",
"275 190 OFFCURVE",
"272 135 CURVE SMOOTH",
"268 58 OFFCURVE",
"226 34 OFFCURVE",
"221 31 CURVE",
"256 20 OFFCURVE",
"357 19 OFFCURVE",
"392 27 CURVE",
"365 49 OFFCURVE",
"349 69 OFFCURVE",
"347 104 CURVE SMOOTH",
"344 143 OFFCURVE",
"345 200 OFFCURVE",
"348 264 CURVE",
"443 198 OFFCURVE",
"500 120 OFFCURVE",
"509 0 CURVE",
"560 34 OFFCURVE",
"618 92 OFFCURVE",
"627 104 CURVE",
"621 106 OFFCURVE",
"621 107 OFFCURVE",
"609 113 CURVE SMOOTH"
);
}
);
width = 627;
}
);
unicode = 0042;
},
{
glyphname = C;
lastChange = "2013-09-07 20:22:01 -0500";
layers = (
{
layerId = "D4A81252-B0CF-4F3E-9514-5651FCA26467";
name = Regular;
paths = (
{
closed = 1;
nodes = (
"337 0 LINE",
"583 0 LINE SMOOTH",
"690 0 OFFCURVE",
"753 47 OFFCURVE",
"753 145 CURVE SMOOTH",
"753 274 OFFCURVE",
"609 270 OFFCURVE",
"609 270 CURVE",
"609 271 LINE",
"609 271 OFFCURVE",
"721 300 OFFCURVE",
"721 400 CURVE SMOOTH",
"721 481 OFFCURVE",
"664 514 OFFCURVE",
"553 514 CURVE SMOOTH",
"552 514 LINE",
"337 514 LINE",
"325 514 LINE",
"325 490 LINE",
"330 490 OFFCURVE",
"406 477 OFFCURVE",
"406 477 CURVE",
"406 38 LINE",
"404 37 OFFCURVE",
"330 24 OFFCURVE",
"325 24 CURVE",
"325 0 LINE"
);
},
{
closed = 1;
nodes = (
"633 373 LINE SMOOTH",
"629 279 OFFCURVE",
"527 269 OFFCURVE",
"527 269 CURVE",
"527 253 LINE",
"538 252 OFFCURVE",
"665 240 OFFCURVE",
"665 142 CURVE SMOOTH",
"665 136 LINE SMOOTH",
"663 83 OFFCURVE",
"628 30 OFFCURVE",
"545 30 CURVE SMOOTH",
"543 30 LINE",
"495 30 LINE",
"494 486 LINE",
"497 486 LINE SMOOTH",
"504 487 OFFCURVE",
"516 487 OFFCURVE",
"522 487 CURVE",
"522 487 OFFCURVE",
"633 493 OFFCURVE",
"633 378 CURVE SMOOTH"
);
},
{
closed = 1;
nodes = (
"117 191 LINE",
"362 191 LINE",
"362 215 LINE",
"284 229 LINE",
"284 655 LINE",
"403 655 LINE",
"445 638 OFFCURVE",
"461 564 OFFCURVE",
"464 551 CURVE",
"477 552 LINE",
"482 552 LINE",
"465 698 LINE",
"15 698 LINE",
"0 568 LINE",
"18 567 LINE",
"21 581 OFFCURVE",
"35 638 OFFCURVE",
"77 655 CURVE SMOOTH",
"195 655 LINE",
"195 229 LINE",
"117 215 LINE"
);
}
);
width = 753;
}
);
unicode = 0043;
},
{
glyphname = D;
lastChange = "2013-09-07 23:01:34 -0500";
layers = (
{
layerId = "D4A81252-B0CF-4F3E-9514-5651FCA26467";
name = Regular;
paths = (
{
closed = 1;
nodes = (
"196 382 OFFCURVE",
"256 359 OFFCURVE",
"340 369 CURVE",
"336 317 OFFCURVE",
"319 250 OFFCURVE",
"297 200 CURVE SMOOTH",
"281 160 OFFCURVE",
"255 109 OFFCURVE",
"220 84 CURVE SMOOTH",
"197 70 OFFCURVE",
"183 67 OFFCURVE",
"160 72 CURVE SMOOTH",
"86 87 OFFCURVE",
"75 211 OFFCURVE",
"85 293 CURVE SMOOTH",
"91 348 OFFCURVE",
"116 406 OFFCURVE",
"151 448 CURVE"
);
},
{
closed = 1;
nodes = (
"300 400 OFFCURVE",
"271 413 OFFCURVE",
"247 437 CURVE SMOOTH",
"218 465 OFFCURVE",
"200 505 OFFCURVE",
"200 543 CURVE SMOOTH",
"200 579 OFFCURVE",
"215 612 OFFCURVE",
"238 627 CURVE SMOOTH",
"258 639 OFFCURVE",
"279 641 OFFCURVE",
"299 633 CURVE SMOOTH",
"351 612 OFFCURVE",
"356 495 OFFCURVE",
"344 403 CURVE"
);
},
{
closed = 1;
nodes = (
"459 431 OFFCURVE",
"440 420 OFFCURVE",
"424 413 CURVE",
"430 571 OFFCURVE",
"393 667 OFFCURVE",
"320 694 CURVE SMOOTH",
"276 710 OFFCURVE",
"232 706 OFFCURVE",
"196 685 CURVE SMOOTH",
"156 659 OFFCURVE",
"129 616 OFFCURVE",
"126 566 CURVE",
"51 492 OFFCURVE",
"9 383 OFFCURVE",
"2 290 CURVE SMOOTH",
"-7 194 OFFCURVE",
"11 113 OFFCURVE",
"52 58 CURVE SMOOTH",
"77 25 OFFCURVE",
"118 6 OFFCURVE",
"153 3 CURVE SMOOTH",
"198 0 OFFCURVE",
"240 16 OFFCURVE",
"280 51 CURVE SMOOTH",
"364 125 OFFCURVE",
"417 271 OFFCURVE",
"423 377 CURVE",
"445 384 OFFCURVE",
"475 403 OFFCURVE",
"496 423 CURVE",
"473 444 LINE"
);
},
{
closed = 1;
nodes = (
"527 351 OFFCURVE",
"528 353 OFFCURVE",
"539 366 CURVE",
"538 367 OFFCURVE",
"536 367 OFFCURVE",
"534 367 CURVE SMOOTH",
"529 367 OFFCURVE",
"523 364 OFFCURVE",
"512 355 CURVE SMOOTH",
"498 341 OFFCURVE",
"484 315 OFFCURVE",
"484 302 CURVE SMOOTH",
"484 297 OFFCURVE",
"491 296 OFFCURVE",
"504 296 CURVE SMOOTH",
"508 296 OFFCURVE",
"511 296 OFFCURVE",
"516 300 CURVE",
"527 306 OFFCURVE",
"536 321 OFFCURVE",
"536 330 CURVE SMOOTH",
"536 336 OFFCURVE",
"532 339 OFFCURVE",
"522 342 CURVE"
);
},
{
closed = 1;
nodes = (
"601 250 LINE",
"593 263 LINE",
"590 270 OFFCURVE",
"589 280 OFFCURVE",
"591 290 CURVE SMOOTH",
"592 294 LINE",
"545 282 LINE",
"536 271 OFFCURVE",
"523 247 OFFCURVE",
"514 228 CURVE SMOOTH",
"482 166 LINE SMOOTH",
"460 126 OFFCURVE",
"440 98 OFFCURVE",
"415 94 CURVE SMOOTH",
"414 94 LINE",
"393 61 LINE",
"397 61 LINE SMOOTH",
"426 61 OFFCURVE",
"456 80 OFFCURVE",
"483 120 CURVE SMOOTH",
"504 153 LINE",
"519 185 LINE",
"524 195 LINE",
"542 228 LINE",
"546 237 OFFCURVE",
"551 245 OFFCURVE",
"556 250 CURVE",
"556 250 OFFCURVE",
"557 252 OFFCURVE",
"559 254 CURVE",
"559 249 LINE",
"562 231 OFFCURVE",
"577 203 OFFCURVE",
"585 190 CURVE",
"587 186 LINE",
"583 186 LINE",
"537 188 OFFCURVE",
"516 160 OFFCURVE",
"515 144 CURVE SMOOTH",
"514 133 OFFCURVE",
"520 124 OFFCURVE",
"525 118 CURVE SMOOTH",
"534 110 OFFCURVE",
"547 104 OFFCURVE",
"561 105 CURVE SMOOTH",
"593 110 OFFCURVE",
"619 130 OFFCURVE",
"626 160 CURVE SMOOTH",
"627 165 LINE",
"628 180 LINE SMOOTH",
"629 187 OFFCURVE",
"626 197 OFFCURVE",
"619 213 CURVE"
);
},
{
closed = 1;
nodes = (
"573 125 OFFCURVE",
"566 123 OFFCURVE",
"556 123 CURVE SMOOTH",
"546 124 OFFCURVE",
"539 127 OFFCURVE",
"536 136 CURVE SMOOTH",
"533 144 OFFCURVE",
"536 154 OFFCURVE",
"543 160 CURVE SMOOTH",
"552 168 OFFCURVE",
"567 171 OFFCURVE",
"588 169 CURVE",
"590 166 LINE",
"590 160 LINE SMOOTH",
"590 146 OFFCURVE",
"584 137 OFFCURVE",
"579 131 CURVE SMOOTH"
);
}
);
width = 628.456;
}
);
unicode = 0044;
},
{
glyphname = E;
lastChange = "2013-09-07 20:22:01 -0500";
layers = (
{
layerId = "D4A81252-B0CF-4F3E-9514-5651FCA26467";
name = Regular;
paths = (
{
closed = 1;
nodes = (
"213 492 OFFCURVE",
"229 470 OFFCURVE",
"248 470 CURVE",
"248 470 OFFCURVE",
"243 483 OFFCURVE",
"249 496 CURVE SMOOTH",
"252 502 OFFCURVE",
"256 506 OFFCURVE",
"263 510 CURVE",
"310 542 OFFCURVE",
"413 510 OFFCURVE",
"413 510 CURVE",
"388 512 OFFCURVE",
"368 511 OFFCURVE",
"352 509 CURVE",
"380 500 OFFCURVE",
"411 488 OFFCURVE",
"430 483 CURVE SMOOTH",
"456 477 OFFCURVE",
"473 474 OFFCURVE",
"497 472 CURVE",
"496 482 LINE",
"511 480 LINE",
"548 473 LINE",
"554 487 LINE",
"559 503 LINE",
"571 491 LINE",
"599 464 LINE",
"598 481 OFFCURVE",
"593 526 OFFCURVE",
"593 526 CURVE SMOOTH",
"592 544 LINE",
"626 530 LINE",
"654 575 LINE",
"663 591 LINE",
"673 575 LINE",
"694 539 LINE",
"702 571 OFFCURVE",
"708 603 OFFCURVE",
"724 619 CURVE",
"708 618 OFFCURVE",
"696 614 OFFCURVE",
"679 601 CURVE",
"688 629 OFFCURVE",
"703 649 OFFCURVE",
"724 672 CURVE",
"704 669 OFFCURVE",
"686 663 OFFCURVE",
"668 653 CURVE",
"675 669 OFFCURVE",
"675 690 OFFCURVE",
"675 690 CURVE",
"589 591 OFFCURVE",
"351 592 OFFCURVE",
"290 572 CURVE SMOOTH",
"249 558 OFFCURVE",
"229 536 OFFCURVE",
"214 515 CURVE"
);
},
{
closed = 1;
nodes = (
"577 298 LINE",
"552 296 LINE",
"568 317 LINE",
"577 328 LINE",
"543 357 LINE",
"523 329 OFFCURVE",
"505 297 OFFCURVE",
"496 272 CURVE",
"535 272 LINE",
"515 248 OFFCURVE",
"477 207 OFFCURVE",
"451 163 CURVE",
"426 226 OFFCURVE",
"365 307 OFFCURVE",
"257 351 CURVE SMOOTH",
"226 364 OFFCURVE",
"196 381 OFFCURVE",
"200 406 CURVE",
"146 414 OFFCURVE",
"86 420 OFFCURVE",
"19 422 CURVE SMOOTH",
"5 422 LINE SMOOTH",
"1 422 OFFCURVE",
"0 421 OFFCURVE",
"4 417 CURVE",
"23 404 OFFCURVE",
"86 380 OFFCURVE",
"163 366 CURVE SMOOTH",
"199 359 OFFCURVE",
"216 348 OFFCURVE",
"242 330 CURVE SMOOTH",
"300 290 OFFCURVE",
"379 176 OFFCURVE",
"426 35 CURVE",
"518 211 OFFCURVE",
"623 296 OFFCURVE",
"631 303 CURVE"
);
},
{
closed = 1;
nodes = (
"213 427 LINE",
"218 433 OFFCURVE",
"227 439 OFFCURVE",
"243 439 CURVE SMOOTH",
"248 439 LINE SMOOTH",
"279 438 OFFCURVE",
"285 406 OFFCURVE",
"317 406 CURVE SMOOTH",
"349 406 OFFCURVE",
"355 438 OFFCURVE",
"385 439 CURVE SMOOTH",
"500 439 LINE",
"499 458 LINE",
"386 458 LINE SMOOTH",
"356 458 OFFCURVE",
"350 489 OFFCURVE",
"317 489 CURVE SMOOTH",
"285 489 OFFCURVE",
"279 458 OFFCURVE",
"248 458 CURVE SMOOTH",
"216 460 OFFCURVE",
"203 487 OFFCURVE",
"201 510 CURVE",
"186 504 OFFCURVE",
"179 497 OFFCURVE",
"168 480 CURVE",
"52 461 OFFCURVE",
"13 442 OFFCURVE",
"2 430 CURVE",
"0 428 OFFCURVE",
"1 427 OFFCURVE",
"2 427 CURVE",
"41 429 OFFCURVE",
"96 430 OFFCURVE",
"190 427 CURVE SMOOTH"
);
},
{
closed = 1;
nodes = (
"302 465 OFFCURVE",
"303 458 OFFCURVE",
"304 454 CURVE",
"293 454 LINE",
"293 461 OFFCURVE",
"297 470 OFFCURVE",
"304 475 CURVE"
);
},
{
closed = 1;
nodes = (
"818 469 LINE",
"771 461 LINE",
"763 483 LINE",
"730 452 LINE SMOOTH",
"727 449 OFFCURVE",
"724 447 OFFCURVE",
"722 447 CURVE SMOOTH",
"721 447 OFFCURVE",
"721 447 OFFCURVE",
"720 448 CURVE SMOOTH",
"717 448 OFFCURVE",
"715 452 OFFCURVE",
"716 459 CURVE SMOOTH",
"716 467 LINE",
"722 527 LINE",
"695 517 LINE",
"663 570 LINE",
"642 534 LINE",
"631 517 LINE",
"604 527 LINE",
"611 459 LINE",
"611 455 LINE SMOOTH",
"611 453 OFFCURVE",
"611 451 OFFCURVE",
"610 450 CURVE",
"609 448 OFFCURVE",
"607 447 OFFCURVE",
"605 447 CURVE SMOOTH",
"605 447 OFFCURVE",
"604 447 OFFCURVE",
"604 448 CURVE SMOOTH",
"603 448 OFFCURVE",
"602 448 OFFCURVE",
"601 449 CURVE SMOOTH",
"600 449 OFFCURVE",
"598 450 OFFCURVE",
"597 451 CURVE SMOOTH",
"563 483 LINE",
"555 461 LINE",
"509 469 LINE",
"513 419 LINE",
"503 415 LINE",
"495 412 LINE",
"593 329 LINE",
"577 309 LINE",
"582 310 LINE",
"656 316 LINE",
"663 302 LINE",
"666 307 LINE",
"671 316 LINE",
"700 314 LINE",
"750 309 LINE",
"734 329 LINE",
"831 412 LINE",
"822 415 LINE",
"814 419 LINE"
);
}
);
width = 830;
}
);
unicode = 0045;
},
{
glyphname = F;
lastChange = "2013-09-07 22:15:03 -0500";
layers = (
{
layerId = "D4A81252-B0CF-4F3E-9514-5651FCA26467";
name = Regular;
paths = (
{
closed = 1;
nodes = (
"399 686 LINE SMOOTH",
"477 686 OFFCURVE",
"531 632 OFFCURVE",
"531 559 CURVE SMOOTH",
"531 490 OFFCURVE",
"511 215 OFFCURVE",
"537 100 CURVE",
"464 105 OFFCURVE",
"391 72 OFFCURVE",
"341 8 CURVE",
"290 37 OFFCURVE",
"257 41 OFFCURVE",
"199 41 CURVE SMOOTH",
"152 41 OFFCURVE",
"87 26 OFFCURVE",
"34 6 CURVE SMOOTH",
"15 -2 OFFCURVE",
"22 8 OFFCURVE",
"33 25 CURVE SMOOTH",
"63 67 OFFCURVE",
"123 120 OFFCURVE",
"185 144 CURVE",
"185 572 LINE",
"163 550 OFFCURVE",
"152 525 OFFCURVE",
"152 478 CURVE SMOOTH",
"152 224 LINE SMOOTH",
"152 180 OFFCURVE",
"136 148 OFFCURVE",
"111 126 CURVE SMOOTH",
"87 105 OFFCURVE",
"54 99 OFFCURVE",
"38 95 CURVE SMOOTH",
"22 92 OFFCURVE",
"15 95 OFFCURVE",
"29 112 CURVE SMOOTH",
"41 128 OFFCURVE",
"54 142 OFFCURVE",
"54 202 CURVE SMOOTH",
"54 322 LINE",
"41 318 OFFCURVE",
"26 303 OFFCURVE",
"16 291 CURVE SMOOTH",
"8 278 OFFCURVE",
"0 281 OFFCURVE",
"0 296 CURVE SMOOTH",
"0 336 OFFCURVE",
"25 374 OFFCURVE",
"54 389 CURVE",
"54 418 LINE",
"41 414 OFFCURVE",
"27 400 OFFCURVE",
"16 387 CURVE SMOOTH",
"8 375 OFFCURVE",
"0 377 OFFCURVE",
"0 392 CURVE SMOOTH",
"0 432 OFFCURVE",
"25 470 OFFCURVE",
"54 485 CURVE",
"54 546 OFFCURVE",
"80 568 OFFCURVE",
"119 590 CURVE",
"62 599 OFFCURVE",
"10 666 OFFCURVE",
"5 698 CURVE",
"23 688 OFFCURVE",
"56 686 OFFCURVE",
"81 686 CURVE SMOOTH"
);
},
{
closed = 1;
nodes = (
"242 147 LINE",
"274 143 LINE",
"274 586 LINE",
"259 584 OFFCURVE",
"242 574 OFFCURVE",
"242 551 CURVE SMOOTH"
);
},
{
closed = 1;
nodes = (
"371 106 LINE",
"388 117 OFFCURVE",
"413 128 OFFCURVE",
"429 133 CURVE",
"429 262 LINE",
"399 243 OFFCURVE",
"366 243 OFFCURVE",
"333 260 CURVE",
"333 124 LINE"
);
},
{
closed = 1;
nodes = (
"366 294 OFFCURVE",
"399 294 OFFCURVE",
"429 313 CURVE",
"429 422 LINE",
"399 441 OFFCURVE",
"366 441 OFFCURVE",
"333 426 CURVE",
"333 310 LINE"
);
},
{
closed = 1;
nodes = (
"402 590 OFFCURVE",
"362 591 OFFCURVE",
"333 577 CURVE",
"333 474 LINE",
"366 491 OFFCURVE",
"399 491 OFFCURVE",
"429 472 CURVE",
"429 573 LINE"
);
}
);
width = 537;
}
);
unicode = 0046;
},
{
glyphname = G;
lastChange = "2013-09-07 17:00:49 -0500";
layers = (
{
layerId = "D4A81252-B0CF-4F3E-9514-5651FCA26467";
name = Regular;
paths = (
{
closed = 1;
nodes = (
"493 700 LINE",
"376 700 LINE",
"376 673 LINE",
"350 700 LINE",
"117 700 LINE",
"0 583 LINE",
"0 117 LINE",
"117 0 LINE",
"376 0 LINE",
"493 117 LINE",
"493 247 LINE",
"376 247 LINE",
"376 165 LINE",
"328 117 LINE",
"165 117 LINE",
"117 165 LINE",
"117 535 LINE",
"165 583 LINE",
"328 583 LINE",
"376 535 LINE",
"376 453 LINE",
"493 453 LINE"
);
}
);
width = 493;
}
);
unicode = 0047;
},
{
glyphname = H;
lastChange = "2013-09-07 22:15:18 -0500";
layers = (
{
layerId = "D4A81252-B0CF-4F3E-9514-5651FCA26467";
name = Regular;
paths = (
{
closed = 1;
nodes = (
"715 196 OFFCURVE",
"660 135 OFFCURVE",
"708 112 CURVE SMOOTH",
"709 111 LINE SMOOTH",
"712 110 OFFCURVE",
"714 107 OFFCURVE",
"714 103 CURVE SMOOTH",
"714 100 OFFCURVE",
"714 96 OFFCURVE",
"711 90 CURVE SMOOTH",
"687 28 OFFCURVE",
"598 1 OFFCURVE",
"532 57 CURVE SMOOTH",
"488 94 OFFCURVE",
"454 168 OFFCURVE",
"456 294 CURVE SMOOTH",
"458 379 OFFCURVE",
"478 504 OFFCURVE",
"586 501 CURVE SMOOTH",
"628 500 OFFCURVE",
"656 482 OFFCURVE",
"675 458 CURVE SMOOTH",
"703 423 OFFCURVE",
"710 375 OFFCURVE",
"711 355 CURVE",
"737 355 LINE",
"737 546 LINE",
"707 546 LINE",
"702 524 OFFCURVE",
"698 504 OFFCURVE",
"658 515 CURVE SMOOTH",
"618 526 OFFCURVE",
"600 525 OFFCURVE",
"586 525 CURVE SMOOTH",
"462 531 OFFCURVE",
"377 391 OFFCURVE",
"390 276 CURVE SMOOTH",
"391 274 OFFCURVE",
"391 272 OFFCURVE",
"391 269 CURVE",
"372 283 OFFCURVE",
"346 354 OFFCURVE",
"300 406 CURVE SMOOTH",
"279 430 OFFCURVE",
"254 449 OFFCURVE",
"224 458 CURVE SMOOTH",
"215 461 OFFCURVE",
"206 463 OFFCURVE",
"197 463 CURVE SMOOTH",
"197 463 OFFCURVE",
"275 580 OFFCURVE",
"314 628 CURVE SMOOTH",
"344 666 OFFCURVE",
"367 666 OFFCURVE",
"386 666 CURVE SMOOTH",
"398 666 LINE",
"398 692 LINE",
"228 692 LINE",
"228 666 LINE",
"246 666 LINE SMOOTH",
"260 665 OFFCURVE",
"271 660 OFFCURVE",
"270 647 CURVE SMOOTH",
"270 642 OFFCURVE",
"268 637 OFFCURVE",
"265 630 CURVE SMOOTH",
"250 601 OFFCURVE",
"184 507 OFFCURVE",
"154 464 CURVE SMOOTH",
"152 462 OFFCURVE",
"151 460 OFFCURVE",
"150 458 CURVE",
"136 450 LINE",
"136 602 LINE SMOOTH",
"136 647 OFFCURVE",
"164 664 OFFCURVE",
"192 666 CURVE",
"192 692 LINE",
"0 692 LINE",
"0 666 LINE",
"10 666 LINE SMOOTH",
"12 666 OFFCURVE",
"15 666 OFFCURVE",
"18 665 CURVE SMOOTH",
"35 664 OFFCURVE",
"52 656 OFFCURVE",
"63 639 CURVE SMOOTH",
"68 630 OFFCURVE",
"72 618 OFFCURVE",
"72 602 CURVE SMOOTH",
"72 263 LINE SMOOTH",
"72 214 OFFCURVE",
"39 198 OFFCURVE",
"10 199 CURVE",
"0 198 LINE",
"0 173 LINE",
"208 173 LINE",
"208 198 LINE",
"198 199 LINE",
"186 198 OFFCURVE",
"174 201 OFFCURVE",
"164 207 CURVE SMOOTH",
"148 217 OFFCURVE",
"136 234 OFFCURVE",
"136 263 CURVE SMOOTH",
"136 401 LINE",
"154 418 OFFCURVE",
"201 450 OFFCURVE",
"258 384 CURVE SMOOTH",
"263 379 LINE SMOOTH",
"317 312 OFFCURVE",
"363 147 OFFCURVE",
"460 58 CURVE SMOOTH",
"499 23 OFFCURVE",
"545 0 OFFCURVE",
"603 0 CURVE SMOOTH",
"735 0 OFFCURVE",
"761 118 OFFCURVE",
"746 143 CURVE SMOOTH"
);
}
);
width = 749.786;
}
);
unicode = 0048;
},
{
glyphname = I;
lastChange = "2013-09-07 20:21:49 -0500";
layers = (
{
layerId = "D4A81252-B0CF-4F3E-9514-5651FCA26467";
name = Regular;
paths = (
{
closed = 1;
nodes = (
"411 472 LINE",
"509 466 OFFCURVE",
"588 418 OFFCURVE",
"603 356 CURVE",
"700 358 LINE",
"685 471 OFFCURVE",
"563 559 OFFCURVE",
"411 567 CURVE",
"412 622 LINE",
"474 620 OFFCURVE",
"538 613 OFFCURVE",
"597 595 CURVE",
"601 571 OFFCURVE",
"637 522 OFFCURVE",
"676 517 CURVE",
"676 517 OFFCURVE",
"661 608 OFFCURVE",
"665 655 CURVE",
"582 678 OFFCURVE",
"309 708 OFFCURVE",
"81 658 CURVE",
"81 658 OFFCURVE",
"80 541 OFFCURVE",
"65 518 CURVE",
"65 518 OFFCURVE",
"140 537 OFFCURVE",
"157 604 CURVE",
"157 604 OFFCURVE",
"237 619 OFFCURVE",
"340 622 CURVE",
"339 560 LINE",
"259 549 OFFCURVE",
"185 509 OFFCURVE",
"135 457 CURVE",
"94 407 OFFCURVE",
"27 342 OFFCURVE",
"0 331 CURVE",
"0 331 OFFCURVE",
"104 247 OFFCURVE",
"123 212 CURVE",
"167 158 OFFCURVE",
"240 114 OFFCURVE",
"335 102 CURVE",
"335 71 LINE",
"292 0 LINE",
"463 3 LINE",
"410 69 LINE",
"410 101 LINE",
"552 110 OFFCURVE",
"668 189 OFFCURVE",
"695 290 CURVE",
"593 288 LINE",
"565 239 OFFCURVE",
"495 202 OFFCURVE",
"410 195 CURVE"
);
},
{
closed = 1;
nodes = (
"242 211 OFFCURVE",
"171 264 OFFCURVE",
"169 329 CURVE SMOOTH",
"168 396 OFFCURVE",
"241 452 OFFCURVE",
"338 468 CURVE",
"336 198 LINE"
);
}
);
width = 700;
}
);
unicode = 0049;
},
{
glyphname = J;
lastChange = "2013-09-07 18:04:12 -0500";
layers = (
{
layerId = "D4A81252-B0CF-4F3E-9514-5651FCA26467";
name = Regular;
paths = (
{
closed = 1;
nodes = (
"486 250 LINE",
"455 278 LINE",
"368 171 LINE",
"356 190 LINE",
"367 198 OFFCURVE",
"380 208 OFFCURVE",
"382 209 CURVE SMOOTH",
"384 210 OFFCURVE",
"391 214 OFFCURVE",
"394 214 CURVE SMOOTH",
"396 214 OFFCURVE",
"389 226 OFFCURVE",
"369 226 CURVE",
"369 337 LINE",
"381 350 LINE",
"381 350 OFFCURVE",
"366 348 OFFCURVE",
"359 350 CURVE SMOOTH",
"358 350 OFFCURVE",
"355 352 OFFCURVE",
"352 353 CURVE",
"356 359 OFFCURVE",
"360 366 OFFCURVE",
"362 375 CURVE SMOOTH",
"377 419 OFFCURVE",
"367 461 OFFCURVE",
"334 486 CURVE SMOOTH",
"310 504 OFFCURVE",
"213 553 OFFCURVE",
"213 553 CURVE SMOOTH",
"213 553 OFFCURVE",
"154 582 OFFCURVE",
"148 588 CURVE SMOOTH",
"143 593 OFFCURVE",
"134 600 OFFCURVE",
"134 622 CURVE SMOOTH",
"134 635 OFFCURVE",
"149 650 OFFCURVE",
"155 653 CURVE SMOOTH",
"165 658 OFFCURVE",
"169 660 OFFCURVE",
"189 660 CURVE SMOOTH",
"201 661 OFFCURVE",
"212 658 OFFCURVE",
"213 658 CURVE SMOOTH",
"226 656 OFFCURVE",
"256 646 OFFCURVE",
"272 625 CURVE",
"278 619 OFFCURVE",
"279 602 OFFCURVE",
"279 602 CURVE",
"304 586 LINE",
"357 655 LINE",
"328 675 LINE",
"320 666 OFFCURVE",
"304 665 OFFCURVE",
"298 669 CURVE SMOOTH",
"292 672 OFFCURVE",
"238 691 OFFCURVE",
"230 694 CURVE SMOOTH",
"216 698 OFFCURVE",
"185 702 OFFCURVE",
"168 699 CURVE SMOOTH",
"151 697 OFFCURVE",
"123 692 OFFCURVE",
"102 669 CURVE SMOOTH",
"76 642 OFFCURVE",
"76 620 OFFCURVE",
"76 608 CURVE SMOOTH",
"76 590 OFFCURVE",
"81 566 OFFCURVE",
"101 546 CURVE SMOOTH",
"130 517 OFFCURVE",
"175 498 OFFCURVE",
"185 493 CURVE SMOOTH",
"203 483 OFFCURVE",
"259 454 OFFCURVE",
"267 449 CURVE SMOOTH",
"301 429 OFFCURVE",
"314 408 OFFCURVE",
"311 381 CURVE SMOOTH",
"310 380 OFFCURVE",
"310 378 OFFCURVE",
"310 377 CURVE",
"295 386 OFFCURVE",
"273 399 OFFCURVE",
"265 408 CURVE",
"265 408 OFFCURVE",
"260 402 OFFCURVE",
"256 399 CURVE SMOOTH",
"231 380 LINE",
"234 392 OFFCURVE",
"235 413 OFFCURVE",
"234 415 CURVE SMOOTH",
"234 418 OFFCURVE",
"232 438 OFFCURVE",
"214 450 CURVE SMOOTH",
"202 459 OFFCURVE",
"176 475 OFFCURVE",
"153 486 CURVE SMOOTH",
"143 491 OFFCURVE",
"111 510 OFFCURVE",
"96 523 CURVE",
"96 523 OFFCURVE",
"70 547 OFFCURVE",
"66 562 CURVE",
"58 579 OFFCURVE",
"58 620 OFFCURVE",
"62 624 CURVE",
"62 624 OFFCURVE",
"52 613 OFFCURVE",
"45 590 CURVE SMOOTH",
"41 579 OFFCURVE",
"39 565 OFFCURVE",
"39 555 CURVE SMOOTH",
"39 539 OFFCURVE",
"42 511 OFFCURVE",
"60 487 CURVE SMOOTH",
"68 476 OFFCURVE",
"80 464 OFFCURVE",
"93 455 CURVE SMOOTH",
"109 445 OFFCURVE",
"125 439 OFFCURVE",
"126 438 CURVE SMOOTH",
"130 435 OFFCURVE",
"172 417 OFFCURVE",
"175 415 CURVE SMOOTH",
"202 403 LINE SMOOTH",
"216 395 OFFCURVE",
"224 390 OFFCURVE",
"228 378 CURVE",
"185 346 LINE",
"185 346 OFFCURVE",
"187 342 OFFCURVE",
"187 337 CURVE SMOOTH",
"187 333 LINE",
"182 335 OFFCURVE",
"176 337 OFFCURVE",
"170 338 CURVE SMOOTH",
"142 342 OFFCURVE",
"125 342 OFFCURVE",
"102 337 CURVE SMOOTH",
"78 331 OFFCURVE",
"52 321 OFFCURVE",
"27 296 CURVE SMOOTH",
"0 269 OFFCURVE",
"0 250 OFFCURVE",
"0 250 CURVE",
"28 266 LINE SMOOTH",
"51 279 OFFCURVE",
"81 287 OFFCURVE",
"102 287 CURVE SMOOTH",
"153 287 OFFCURVE",
"180 272 OFFCURVE",
"187 264 CURVE",
"187 214 LINE SMOOTH",
"187 205 OFFCURVE",
"184 203 OFFCURVE",
"182 202 CURVE SMOOTH",
"178 199 LINE",
"182 196 LINE",
"282 136 LINE",
"320 163 LINE",
"338 134 LINE",
"287 69 LINE",
"251 102 LINE",
"251 41 LINE",
"292 4 LINE",
"363 94 LINE",
"422 0 LINE",
"470 38 LINE",
"470 98 LINE",
"432 69 LINE",
"393 131 LINE",
"463 219 LINE",
"486 200 LINE"
);
},
{
closed = 1;
nodes = (
"265 351 LINE",
"271 346 OFFCURVE",
"279 342 OFFCURVE",
"286 338 CURVE",
"285 337 LINE SMOOTH",
"285 337 OFFCURVE",
"259 315 OFFCURVE",
"243 313 CURVE",
"243 335 LINE"
);
},
{
closed = 1;
nodes = (
"243 216 LINE",
"243 275 LINE",
"260 278 OFFCURVE",
"299 297 OFFCURVE",
"320 318 CURVE",
"320 248 LINE",
"296 286 LINE",
"260 260 LINE",
"260 214 LINE",
"280 227 LINE",
"295 203 LINE",
"282 193 LINE"
);
}
);
width = 486;
}
);
unicode = 004A;
},
{
glyphname = K;
lastChange = "2013-09-07 20:21:49 -0500";
layers = (
{
layerId = "D4A81252-B0CF-4F3E-9514-5651FCA26467";
name = Regular;
paths = (
{
closed = 1;
nodes = (
"578 106 OFFCURVE",
"561 99 OFFCURVE",
"545 102 CURVE SMOOTH",
"532 105 OFFCURVE",
"515 114 OFFCURVE",
"506 146 CURVE",
"401 581 LINE SMOOTH",
"393 634 OFFCURVE",
"365 663 OFFCURVE",
"343 678 CURVE SMOOTH",
"314 697 OFFCURVE",
"279 704 OFFCURVE",
"248 697 CURVE SMOOTH",
"199 686 OFFCURVE",
"182 660 OFFCURVE",
"175 641 CURVE",
"195 651 OFFCURVE",
"216 646 OFFCURVE",
"230 638 CURVE SMOOTH",
"239 632 OFFCURVE",
"259 620 OFFCURVE",
"245 584 CURVE SMOOTH",
"227 535 LINE",
"217 538 LINE SMOOTH",
"206 541 OFFCURVE",
"194 542 OFFCURVE",
"182 540 CURVE SMOOTH",
"162 536 OFFCURVE",
"147 528 OFFCURVE",
"139 516 CURVE SMOOTH",
"134 508 OFFCURVE",
"133 500 OFFCURVE",
"133 493 CURVE",
"150 502 OFFCURVE",
"167 499 OFFCURVE",
"179 491 CURVE SMOOTH",
"188 486 OFFCURVE",
"196 478 OFFCURVE",
"196 463 CURVE SMOOTH",
"196 458 OFFCURVE",
"195 452 OFFCURVE",
"193 445 CURVE SMOOTH",
"82 72 LINE",
"76 71 LINE SMOOTH",
"19 52 OFFCURVE",
"4 20 OFFCURVE",
"0 0 CURVE",
"17 10 OFFCURVE",
"45 23 OFFCURVE",
"85 27 CURVE SMOOTH",
"101 28 OFFCURVE",
"120 23 OFFCURVE",
"139 18 CURVE SMOOTH",
"155 15 OFFCURVE",
"171 11 OFFCURVE",
"182 11 CURVE SMOOTH",
"197 11 OFFCURVE",
"208 15 OFFCURVE",
"215 23 CURVE SMOOTH",
"222 31 OFFCURVE",
"225 42 OFFCURVE",
"225 51 CURVE",
"196 67 LINE",
"194 63 OFFCURVE",
"191 60 OFFCURVE",
"187 58 CURVE SMOOTH",
"181 55 OFFCURVE",
"170 52 OFFCURVE",
"154 58 CURVE SMOOTH",
"144 62 LINE",
"188 215 LINE",
"359 215 LINE",
"388 101 LINE SMOOTH",
"408 22 OFFCURVE",
"465 3 OFFCURVE",
"509 11 CURVE SMOOTH",
"550 18 OFFCURVE",
"580 58 OFFCURVE",
"592 117 CURVE"
);
},
{
closed = 1;
nodes = (
"271 491 LINE",
"283 534 LINE",
"342 277 LINE",
"209 277 LINE"
);
},
{
closed = 1;
nodes = (
"624 446 LINE SMOOTH",
"614 449 OFFCURVE",
"595 455 OFFCURVE",
"595 473 CURVE SMOOTH",
"595 489 OFFCURVE",
"610 499 OFFCURVE",
"626 499 CURVE SMOOTH",
"636 499 OFFCURVE",
"647 495 OFFCURVE",
"657 489 CURVE",
"661 496 OFFCURVE",
"665 505 OFFCURVE",
"669 513 CURVE",
"654 520 OFFCURVE",
"635 525 OFFCURVE",
"618 525 CURVE SMOOTH",
"582 525 OFFCURVE",
"558 501 OFFCURVE",
"558 466 CURVE SMOOTH",
"558 435 OFFCURVE",
"571 427 OFFCURVE",
"607 417 CURVE SMOOTH",
"620 414 OFFCURVE",
"644 407 OFFCURVE",
"644 386 CURVE SMOOTH",
"644 369 OFFCURVE",
"630 357 OFFCURVE",
"610 357 CURVE SMOOTH",
"595 357 OFFCURVE",
"581 364 OFFCURVE",
"566 375 CURVE",
"562 366 OFFCURVE",
"557 356 OFFCURVE",
"553 348 CURVE",
"571 337 OFFCURVE",
"591 330 OFFCURVE",
"612 330 CURVE SMOOTH",
"632 330 OFFCURVE",
"650 336 OFFCURVE",
"663 347 CURVE SMOOTH",
"675 357 OFFCURVE",
"681 373 OFFCURVE",
"681 395 CURVE SMOOTH",
"681 419 OFFCURVE",
"668 433 OFFCURVE",
"637 442 CURVE SMOOTH"
);
},
{
closed = 1;
nodes = (
"493 516 OFFCURVE",
"501 517 OFFCURVE",
"506 510 CURVE SMOOTH",
"508 508 OFFCURVE",
"508 505 OFFCURVE",
"508 502 CURVE SMOOTH",
"508 498 OFFCURVE",
"507 494 OFFCURVE",
"505 490 CURVE SMOOTH",
"503 483 OFFCURVE",
"500 479 OFFCURVE",
"497 475 CURVE",
"506 481 LINE SMOOTH",
"514 488 OFFCURVE",
"522 501 OFFCURVE",
"522 515 CURVE SMOOTH",
"522 521 OFFCURVE",
"520 527 OFFCURVE",
"518 533 CURVE SMOOTH",
"514 542 OFFCURVE",
"506 544 OFFCURVE",
"502 545 CURVE SMOOTH",
"494 546 OFFCURVE",
"486 544 OFFCURVE",
"482 539 CURVE SMOOTH",
"477 533 OFFCURVE",
"477 525 OFFCURVE",
"479 520 CURVE SMOOTH",
"481 517 OFFCURVE",
"483 516 OFFCURVE",
"488 516 CURVE SMOOTH"
);
}
);
width = 681;
}
);
unicode = 004B;
},
{
glyphname = L;
lastChange = "2013-09-07 22:15:33 -0500";
layers = (
{
layerId = "D4A81252-B0CF-4F3E-9514-5651FCA26467";
name = Regular;
paths = (
{
closed = 1;
nodes = (
"436 43 LINE",
"148 43 LINE",
"193 0 LINE",
"471 0 LINE",
"471 117 LINE",
"436 150 LINE"
);
},
{
closed = 1;
nodes = (
"404 367 OFFCURVE",
"454 381 OFFCURVE",
"454 381 CURVE SMOOTH",
"454 381 OFFCURVE",
"440 386 OFFCURVE",
"427 396 CURVE",
"407 390 LINE SMOOTH",
"406 390 OFFCURVE",
"362 377 OFFCURVE",
"362 347 CURVE SMOOTH",
"362 171 LINE SMOOTH",
"362 159 OFFCURVE",
"367 151 OFFCURVE",
"391 151 CURVE SMOOTH",
"404 151 LINE",
"404 154 LINE",
"404 331 LINE SMOOTH"
);
},
{
closed = 1;
nodes = (
"543 429 LINE",
"614 429 LINE",
"614 663 LINE",
"575 700 LINE",
"575 470 LINE",
"500 470 LINE"
);
},
{
closed = 1;
nodes = (
"362 422 OFFCURVE",
"407 404 OFFCURVE",
"407 404 CURVE SMOOTH",
"426 397 LINE",
"414 406 OFFCURVE",
"404 418 OFFCURVE",
"404 433 CURVE SMOOTH",
"404 583 LINE",
"411 583 LINE SMOOTH",
"438 580 OFFCURVE",
"458 573 OFFCURVE",
"472 562 CURVE",
"449 585 OFFCURVE",
"413 598 OFFCURVE",
"362 598 CURVE",
"362 450 LINE SMOOTH"
);
},
{
closed = 1;
nodes = (
"128 598 OFFCURVE",
"91 566 OFFCURVE",
"91 488 CURVE SMOOTH",
"91 470 LINE",
"0 470 LINE",
"41 431 LINE",
"127 431 LINE",
"128 445 LINE SMOOTH",
"128 526 OFFCURVE",
"135 577 OFFCURVE",
"221 586 CURVE",
"221 598 LINE"
);
},
{
closed = 1;
nodes = (
"348 347 LINE SMOOTH",
"348 375 OFFCURVE",
"371 390 OFFCURVE",
"388 398 CURVE",
"371 407 OFFCURVE",
"348 424 OFFCURVE",
"348 450 CURVE SMOOTH",
"348 613 LINE",
"362 613 LINE SMOOTH",
"458 613 OFFCURVE",
"514 569 OFFCURVE",
"514 493 CURVE SMOOTH",
"514 484 LINE",
"560 484 LINE",
"560 686 LINE",
"14 686 LINE",
"14 484 LINE",
"77 484 LINE",
"77 493 LINE",
"76 489 LINE",
"76 575 OFFCURVE",
"120 613 OFFCURVE",
"220 613 CURVE SMOOTH",
"236 613 LINE",
"236 450 LINE SMOOTH",
"236 422 OFFCURVE",
"216 406 OFFCURVE",
"201 397 CURVE",
"216 390 OFFCURVE",
"236 375 OFFCURVE",
"236 347 CURVE SMOOTH",
"236 172 LINE SMOOTH",
"236 150 OFFCURVE",
"220 136 OFFCURVE",
"194 136 CURVE SMOOTH",
"162 136 LINE",
"162 58 LINE",
"422 58 LINE",
"422 136 LINE",
"391 136 LINE SMOOTH",
"362 136 OFFCURVE",
"348 148 OFFCURVE",
"348 171 CURVE SMOOTH"
);
}
);
width = 614;
}
);
unicode = 004C;
},
{
glyphname = M;
lastChange = "2013-09-07 21:44:45 -0500";
layers = (
{
layerId = "D4A81252-B0CF-4F3E-9514-5651FCA26467";
name = Regular;
paths = (
{
closed = 1;
nodes = (
"325 551 OFFCURVE",
"291 564 OFFCURVE",
"244 568 CURVE",
"262 506 LINE",
"299 511 OFFCURVE",
"325 522 OFFCURVE",
"325 536 CURVE SMOOTH"
);
},
{
closed = 1;
nodes = (
"277 176 LINE",
"218 377 LINE",
"160 176 LINE"
);
},
{
closed = 1;
nodes = (
"218 319 LINE",
"255 192 LINE",
"181 192 LINE"
);
},
{
closed = 1;
nodes = (
"426 13 OFFCURVE",
"419 28 OFFCURVE",
"414 44 CURVE SMOOTH",
"356 242 LINE SMOOTH",
"347 273 OFFCURVE",
"364 295 OFFCURVE",
"366 299 CURVE",
"346 310 OFFCURVE",
"332 326 OFFCURVE",
"326 346 CURVE SMOOTH",
"291 466 LINE",
"340 479 OFFCURVE",
"374 505 OFFCURVE",
"374 536 CURVE SMOOTH",
"374 574 OFFCURVE",
"320 606 OFFCURVE",
"248 613 CURVE",
"223 700 LINE",
"214 700 LINE",
"188 613 LINE",
"116 606 OFFCURVE",
"62 574 OFFCURVE",
"62 536 CURVE SMOOTH",
"62 505 OFFCURVE",
"96 479 OFFCURVE",
"145 466 CURVE",
"110 346 LINE SMOOTH",
"105 326 OFFCURVE",
"90 310 OFFCURVE",
"70 299 CURVE",
"72 295 OFFCURVE",
"89 273 OFFCURVE",
"80 242 CURVE SMOOTH",
"22 44 LINE SMOOTH",
"18 28 OFFCURVE",
"10 13 OFFCURVE",
"0 0 CURVE",
"144 0 LINE",
"132 26 OFFCURVE",
"138 44 OFFCURVE",
"143 62 CURVE SMOOTH",
"149 79 LINE",
"288 79 LINE",
"293 62 LINE SMOOTH",
"298 44 OFFCURVE",
"304 26 OFFCURVE",
"293 0 CURVE",
"436 0 LINE"
);
},
{
closed = 1;
nodes = (
"125 58 LINE SMOOTH",
"122 46 OFFCURVE",
"120 29 OFFCURVE",
"122 16 CURVE",
"29 16 LINE",
"33 23 OFFCURVE",
"35 31 OFFCURVE",
"38 38 CURVE SMOOTH",
"94 229 LINE SMOOTH",
"104 261 OFFCURVE",
"99 274 OFFCURVE",
"92 293 CURVE",
"110 307 OFFCURVE",
"121 325 OFFCURVE",
"127 345 CURVE SMOOTH",
"168 484 LINE",
"119 492 OFFCURVE",
"85 512 OFFCURVE",
"85 536 CURVE SMOOTH",
"85 564 OFFCURVE",
"134 587 OFFCURVE",
"199 591 CURVE",
"218 657 LINE",
"237 591 LINE",
"302 587 OFFCURVE",
"351 564 OFFCURVE",
"351 536 CURVE SMOOTH",
"351 512 OFFCURVE",
"317 492 OFFCURVE",
"269 484 CURVE",
"309 345 LINE SMOOTH",
"315 325 OFFCURVE",
"327 307 OFFCURVE",
"345 293 CURVE",
"338 274 OFFCURVE",
"333 261 OFFCURVE",
"342 229 CURVE SMOOTH",
"399 38 LINE SMOOTH",
"401 31 OFFCURVE",
"404 23 OFFCURVE",
"407 16 CURVE",
"314 16 LINE",
"316 29 OFFCURVE",
"314 46 OFFCURVE",
"311 58 CURVE SMOOTH",
"300 96 LINE",
"136 96 LINE"
);
},
{
closed = 1;
nodes = (
"111 522 OFFCURVE",
"137 511 OFFCURVE",
"174 506 CURVE",
"192 568 LINE",
"146 564 OFFCURVE",
"111 551 OFFCURVE",
"111 536 CURVE SMOOTH"
);
},
{
closed = 1;
nodes = (
"329 136 LINE",
"218 515 LINE",
"218 398 LINE",
"285 170 LINE"
);
},
{
closed = 1;
nodes = (
"218 636 LINE",
"205 591 LINE",
"210 592 OFFCURVE",
"214 592 OFFCURVE",
"218 592 CURVE"
);
},
{
closed = 1;
nodes = (
"218 556 LINE",
"242 556 LINE",
"238 568 LINE",
"235 568 LINE SMOOTH",
"229 569 OFFCURVE",
"224 569 OFFCURVE",
"218 569 CURVE SMOOTH",
"211 569 OFFCURVE",
"205 569 OFFCURVE",
"198 568 CURVE",
"180 505 LINE",
"174 483 LINE",
"132 339 LINE SMOOTH",
"126 321 OFFCURVE",
"115 304 OFFCURVE",
"99 291 CURVE",
"105 274 OFFCURVE",
"110 261 OFFCURVE",
"101 231 CURVE SMOOTH",
"46 43 LINE SMOOTH",
"44 36 OFFCURVE",
"41 29 OFFCURVE",
"38 22 CURVE",
"117 22 LINE",
"81 46 LINE",
"218 515 LINE"
);
},
{
closed = 1;
nodes = (
"354 49 LINE",
"329 136 LINE",
"107 136 LINE",
"132 102 LINE",
"305 102 LINE",
"316 61 LINE SMOOTH",
"320 50 OFFCURVE",
"321 34 OFFCURVE",
"320 22 CURVE",
"398 22 LINE"
);
}
);
width = 436;
}
);
unicode = 004D;
},
{
glyphname = N;
lastChange = "2013-09-07 18:03:41 -0500";
layers = (
{
layerId = "D4A81252-B0CF-4F3E-9514-5651FCA26467";
name = Regular;
paths = (
{
closed = 1;
nodes = (
"443 359 OFFCURVE",
"409 365 OFFCURVE",
"371 371 CURVE",
"355 394 OFFCURVE",
"333 414 OFFCURVE",
"307 430 CURVE",
"321 460 OFFCURVE",
"324 469 OFFCURVE",
"324 469 CURVE",
"335 461 OFFCURVE",
"348 454 OFFCURVE",
"362 453 CURVE SMOOTH",
"371 452 LINE",
"371 695 LINE",
"371 695 OFFCURVE",
"306 670 OFFCURVE",
"299 668 CURVE",
"277 684 OFFCURVE",
"243 700 OFFCURVE",
"205 700 CURVE SMOOTH",
"132 700 OFFCURVE",
"26 634 OFFCURVE",
"26 491 CURVE SMOOTH",
"26 443 OFFCURVE",
"36 403 OFFCURVE",
"58 369 CURVE",
"21 363 OFFCURVE",
"0 359 OFFCURVE",
"0 359 CURVE SMOOTH",
"0 359 OFFCURVE",
"29 352 OFFCURVE",
"78 344 CURVE",
"95 326 OFFCURVE",
"115 311 OFFCURVE",
"140 297 CURVE",
"122 257 OFFCURVE",
"111 234 OFFCURVE",
"111 234 CURVE SMOOTH",
"111 234 OFFCURVE",
"127 241 OFFCURVE",
"173 270 CURVE",
"173 270 OFFCURVE",
"175 272 OFFCURVE",
"179 274 CURVE",
"200 259 LINE",
"207 212 LINE SMOOTH",
"215 164 OFFCURVE",
"221 135 OFFCURVE",
"221 135 CURVE SMOOTH",
"221 135 OFFCURVE",
"228 164 OFFCURVE",
"235 212 CURVE",
"237 221 LINE",
"247 206 OFFCURVE",
"253 191 OFFCURVE",
"253 177 CURVE SMOOTH",
"253 159 OFFCURVE",
"248 117 OFFCURVE",
"205 117 CURVE SMOOTH",
"145 117 OFFCURVE",
"112 192 OFFCURVE",
"97 224 CURVE SMOOTH",
"86 249 OFFCURVE",
"55 265 OFFCURVE",
"37 267 CURVE SMOOTH",
"27 268 LINE",
"27 0 LINE",
"111 30 LINE",
"115 28 LINE",
"138 18 OFFCURVE",
"172 4 OFFCURVE",
"209 4 CURVE SMOOTH",
"308 4 OFFCURVE",
"411 92 OFFCURVE",
"411 239 CURVE SMOOTH",
"411 279 OFFCURVE",
"402 316 OFFCURVE",
"386 347 CURVE",
"423 354 OFFCURVE",
"443 359 OFFCURVE",
"443 359 CURVE SMOOTH"
);
},
{
closed = 1;
nodes = (
"314 381 OFFCURVE",
"311 381 OFFCURVE",
"309 382 CURVE",
"308 384 OFFCURVE",
"307 387 OFFCURVE",
"307 389 CURVE",
"317 380 LINE"
);
},
{
closed = 1;
nodes = (
"289 419 OFFCURVE",
"285 423 OFFCURVE",
"281 427 CURVE",
"318 469 LINE",
"318 468 OFFCURVE",
"305 441 OFFCURVE",
"293 414 CURVE"
);
},
{
closed = 1;
nodes = (
"175 437 LINE",
"170 434 OFFCURVE",
"165 431 OFFCURVE",
"161 427 CURVE",
"125 469 LINE"
);
},
{
closed = 1;
nodes = (
"116 481 OFFCURVE",
"122 458 OFFCURVE",
"141 417 CURVE SMOOTH",
"145 409 LINE",
"140 400 OFFCURVE",
"135 391 OFFCURVE",
"133 382 CURVE",
"120 379 OFFCURVE",
"104 377 OFFCURVE",
"93 375 CURVE",
"72 404 OFFCURVE",
"58 441 OFFCURVE",
"58 495 CURVE SMOOTH",
"58 598 OFFCURVE",
"137 668 OFFCURVE",
"206 668 CURVE SMOOTH",
"232 668 OFFCURVE",
"251 659 OFFCURVE",
"265 649 CURVE SMOOTH",
"280 639 OFFCURVE",
"290 630 OFFCURVE",
"297 630 CURVE",
"338 648 LINE",
"338 499 LINE",
"304 524 OFFCURVE",
"294 621 OFFCURVE",
"216 621 CURVE SMOOTH",
"183 621 OFFCURVE",
"154 591 OFFCURVE",
"154 543 CURVE SMOOTH",
"154 502 OFFCURVE",
"173 477 OFFCURVE",
"200 457 CURVE",
"199 453 OFFCURVE",
"198 450 OFFCURVE",
"198 447 CURVE",
"182 441 LINE",
"158 455 OFFCURVE",
"116 481 OFFCURVE",
"116 481 CURVE SMOOTH"
);
},
{
closed = 1;
nodes = (
"207 505 OFFCURVE",
"207 501 OFFCURVE",
"206 496 CURVE",
"194 509 OFFCURVE",
"186 524 OFFCURVE",
"186 541 CURVE SMOOTH",
"186 555 OFFCURVE",
"189 587 OFFCURVE",
"219 587 CURVE SMOOTH",
"251 587 OFFCURVE",
"267 556 OFFCURVE",
"274 538 CURVE SMOOTH",
"281 521 OFFCURVE",
"296 493 OFFCURVE",
"317 474 CURVE",
"273 449 LINE",
"263 455 OFFCURVE",
"252 461 OFFCURVE",
"241 468 CURVE",
"238 486 OFFCURVE",
"236 505 OFFCURVE",
"236 505 CURVE",
"228 553 OFFCURVE",
"221 578 OFFCURVE",
"221 578 CURVE SMOOTH",
"221 578 OFFCURVE",
"215 552 OFFCURVE",
"207 505 CURVE"
);
},
{
closed = 1;
nodes = (
"153 298 OFFCURVE",
"158 294 OFFCURVE",
"162 290 CURVE",
"126 248 LINE",
"125 248 OFFCURVE",
"137 275 OFFCURVE",
"150 303 CURVE"
);
},
{
closed = 1;
nodes = (
"204 273 LINE",
"202 273 OFFCURVE",
"199 274 OFFCURVE",
"197 275 CURVE SMOOTH",
"193 276 OFFCURVE",
"190 277 OFFCURVE",
"186 279 CURVE",
"179 282 LINE",
"178 282 OFFCURVE",
"177 283 OFFCURVE",
"176 284 CURVE",
"175 284 OFFCURVE",
"174 285 OFFCURVE",
"173 286 CURVE",
"172 286 LINE",
"172 287 OFFCURVE",
"171 287 OFFCURVE",
"170 288 CURVE SMOOTH",
"166 291 LINE",
"165 291 LINE",
"165 292 OFFCURVE",
"165 292 OFFCURVE",
"164 292 CURVE SMOOTH",
"164 292 OFFCURVE",
"164 293 OFFCURVE",
"163 293 CURVE SMOOTH",
"163 294 OFFCURVE",
"162 294 OFFCURVE",
"161 295 CURVE SMOOTH",
"158 298 LINE",
"155 302 LINE",
"154 302 LINE",
"151 306 LINE",
"147 312 LINE",
"143 319 OFFCURVE",
"139 326 OFFCURVE",
"137 335 CURVE SMOOTH",
"136 337 OFFCURVE",
"136 339 OFFCURVE",
"135 341 CURVE",
"146 339 OFFCURVE",
"156 338 OFFCURVE",
"165 336 CURVE SMOOTH",
"180 334 OFFCURVE",
"191 332 OFFCURVE",
"195 332 CURVE SMOOTH",
"197 333 OFFCURVE",
"199 336 OFFCURVE",
"202 338 CURVE SMOOTH",
"204 341 OFFCURVE",
"207 343 OFFCURVE",
"210 346 CURVE SMOOTH",
"211 347 OFFCURVE",
"212 349 OFFCURVE",
"214 350 CURVE SMOOTH",
"214 351 OFFCURVE",
"215 351 OFFCURVE",
"215 352 CURVE SMOOTH",
"218 355 OFFCURVE",
"221 357 OFFCURVE",
"221 358 CURVE",
"33 358 LINE",
"33 359 OFFCURVE",
"86 368 OFFCURVE",
"132 375 CURVE SMOOTH",
"133 375 OFFCURVE",
"134 376 OFFCURVE",
"135 376 CURVE",
"135 378 OFFCURVE",
"136 380 OFFCURVE",
"137 382 CURVE",
"137 384 OFFCURVE",
"138 386 OFFCURVE",
"138 388 CURVE",
"139 388 LINE",
"139 390 OFFCURVE",
"140 392 OFFCURVE",
"141 394 CURVE",
"143 399 LINE",
"144 400 LINE",
"147 405 LINE SMOOTH",
"148 407 OFFCURVE",
"149 409 OFFCURVE",
"151 411 CURVE SMOOTH",
"153 414 LINE",
"156 418 LINE SMOOTH",
"156 418 OFFCURVE",
"157 418 OFFCURVE",
"157 419 CURVE SMOOTH",
"158 419 OFFCURVE",
"158 420 OFFCURVE",
"158 420 CURVE SMOOTH",
"159 420 OFFCURVE",
"159 421 OFFCURVE",
"159 421 CURVE SMOOTH",
"161 422 OFFCURVE",
"162 423 OFFCURVE",
"163 424 CURVE SMOOTH",
"165 426 LINE SMOOTH",
"166 427 OFFCURVE",
"167 428 OFFCURVE",
"168 428 CURVE SMOOTH",
"171 431 LINE SMOOTH",
"173 432 OFFCURVE",
"174 433 OFFCURVE",
"175 433 CURVE",
"176 434 OFFCURVE",
"177 435 OFFCURVE",
"179 435 CURVE",
"181 437 OFFCURVE",
"183 438 OFFCURVE",
"185 439 CURVE SMOOTH",
"189 440 OFFCURVE",
"193 442 OFFCURVE",
"197 443 CURVE SMOOTH",
"200 444 OFFCURVE",
"202 444 OFFCURVE",
"204 445 CURVE",
"203 437 OFFCURVE",
"201 429 OFFCURVE",
"200 422 CURVE SMOOTH",
"197 403 LINE",
"197 399 LINE SMOOTH",
"196 394 OFFCURVE",
"195 389 OFFCURVE",
"195 387 CURVE SMOOTH",
"195 385 LINE",
"202 379 OFFCURVE",
"219 361 OFFCURVE",
"221 358 CURVE",
"221 549 LINE",
"222 549 OFFCURVE",
"231 495 OFFCURVE",
"238 448 CURVE SMOOTH",
"238 447 OFFCURVE",
"239 446 OFFCURVE",
"239 444 CURVE",
"241 444 OFFCURVE",
"243 443 OFFCURVE",
"245 443 CURVE",
"249 442 OFFCURVE",
"253 440 OFFCURVE",
"257 439 CURVE SMOOTH",
"263 435 LINE SMOOTH",
"266 434 OFFCURVE",
"268 433 OFFCURVE",
"270 431 CURVE SMOOTH",
"273 429 LINE",
"277 426 LINE",
"278 425 LINE SMOOTH",
"279 424 OFFCURVE",
"279 424 OFFCURVE",
"280 424 CURVE SMOOTH",
"280 423 OFFCURVE",
"281 423 OFFCURVE",
"281 422 CURVE SMOOTH",
"282 421 OFFCURVE",
"283 421 OFFCURVE",
"283 420 CURVE SMOOTH",
"284 419 LINE SMOOTH",
"286 418 OFFCURVE",
"287 417 OFFCURVE",
"288 415 CURVE SMOOTH",
"289 413 OFFCURVE",
"290 412 OFFCURVE",
"291 411 CURVE SMOOTH",
"293 409 OFFCURVE",
"294 407 OFFCURVE",
"295 405 CURVE SMOOTH",
"300 398 OFFCURVE",
"303 390 OFFCURVE",
"305 382 CURVE SMOOTH",
"305 381 OFFCURVE",
"306 380 OFFCURVE",
"306 379 CURVE SMOOTH",
"306 378 OFFCURVE",
"307 377 OFFCURVE",
"307 376 CURVE",
"296 378 OFFCURVE",
"286 379 OFFCURVE",
"278 381 CURVE SMOOTH",
"263 383 OFFCURVE",
"252 384 OFFCURVE",
"248 385 CURVE SMOOTH",
"247 385 LINE",
"241 379 LINE SMOOTH",
"234 371 OFFCURVE",
"222 360 OFFCURVE",
"221 358 CURVE",
"412 358 LINE",
"310 341 LINE",
"307 341 LINE",
"306 339 OFFCURVE",
"306 336 OFFCURVE",
"305 334 CURVE SMOOTH",
"303 329 LINE",
"303 328 LINE SMOOTH",
"302 327 OFFCURVE",
"302 325 OFFCURVE",
"301 323 CURVE",
"295 313 LINE SMOOTH",
"294 311 OFFCURVE",
"293 309 OFFCURVE",
"291 307 CURVE",
"290 305 OFFCURVE",
"289 304 OFFCURVE",
"288 303 CURVE",
"288 302 LINE SMOOTH",
"287 301 OFFCURVE",
"286 300 OFFCURVE",
"284 299 CURVE SMOOTH",
"284 298 OFFCURVE",
"284 298 OFFCURVE",
"283 297 CURVE SMOOTH",
"282 296 LINE SMOOTH",
"282 296 OFFCURVE",
"281 296 OFFCURVE",
"281 295 CURVE SMOOTH",
"280 294 LINE SMOOTH",
"279 294 OFFCURVE",
"279 293 OFFCURVE",
"279 293 CURVE SMOOTH",
"278 293 LINE",
"274 289 LINE SMOOTH",
"272 288 OFFCURVE",
"271 287 OFFCURVE",
"270 287 CURVE SMOOTH",
"270 286 LINE SMOOTH",
"269 286 OFFCURVE",
"268 285 OFFCURVE",
"267 284 CURVE",
"265 283 OFFCURVE",
"264 283 OFFCURVE",
"263 282 CURVE SMOOTH",
"256 279 LINE",
"253 277 OFFCURVE",
"249 276 OFFCURVE",
"246 275 CURVE SMOOTH",
"243 274 OFFCURVE",
"241 274 OFFCURVE",
"239 273 CURVE",
"240 281 OFFCURVE",
"241 288 OFFCURVE",
"243 295 CURVE SMOOTH",
"244 302 OFFCURVE",
"245 309 OFFCURVE",
"245 314 CURVE SMOOTH",
"246 315 OFFCURVE",
"246 317 OFFCURVE",
"246 318 CURVE SMOOTH",
"247 323 OFFCURVE",
"247 327 OFFCURVE",
"248 330 CURVE SMOOTH",
"248 332 LINE",
"241 338 OFFCURVE",
"224 355 OFFCURVE",
"222 358 CURVE",
"221 358 LINE",
"221 168 LINE",
"204 270 LINE"
);
},
{
closed = 1;
nodes = (
"60 214 LINE",
"78 202 OFFCURVE",
"103 83 OFFCURVE",
"212 83 CURVE SMOOTH",
"249 83 OFFCURVE",
"284 116 OFFCURVE",
"284 180 CURVE SMOOTH",
"284 217 OFFCURVE",
"268 242 OFFCURVE",
"244 262 CURVE",
"244 265 OFFCURVE",
"245 268 OFFCURVE",
"245 271 CURVE",
"260 277 LINE",
"328 234 LINE",
"299 304 LINE",
"297 309 LINE",
"302 317 OFFCURVE",
"306 326 OFFCURVE",
"309 335 CURVE",
"351 342 LINE",
"367 316 OFFCURVE",
"378 282 OFFCURVE",
"378 238 CURVE SMOOTH",
"378 117 OFFCURVE",
"291 36 OFFCURVE",
"209 36 CURVE SMOOTH",
"154 36 OFFCURVE",
"125 69 OFFCURVE",
"110 69 CURVE SMOOTH",
"110 69 OFFCURVE",
"76 51 OFFCURVE",
"60 47 CURVE"
);
},
{
closed = 1;
nodes = (
"266 280 LINE",
"271 283 OFFCURVE",
"276 287 OFFCURVE",
"281 291 CURVE",
"317 248 LINE"
);
}
);
width = 443;
}
);
unicode = 004E;
},
{
glyphname = O;
lastChange = "2013-09-07 20:21:49 -0500";
layers = (
{
layerId = "D4A81252-B0CF-4F3E-9514-5651FCA26467";
name = Regular;
paths = (
{
closed = 1;
nodes = (
"567 86 LINE",
"595 0 LINE",
"476 86 LINE"
);
},
{
closed = 1;
nodes = (
"344 148 LINE",
"344 159 LINE",
"292 177 LINE",
"292 250 LINE",
"444 250 LINE",
"444 177 LINE",
"392 159 LINE",
"392 148 LINE",
"368 165 LINE"
);
},
{
closed = 1;
nodes = (
"585 433 LINE",
"736 433 LINE",
"536 288 LINE",
"536 415 LINE"
);
},
{
closed = 1;
nodes = (
"292 415 LINE",
"344 434 LINE",
"344 506 LINE",
"305 506 LINE",
"368 700 LINE",
"431 506 LINE",
"392 506 LINE",
"392 434 LINE",
"444 415 LINE",
"444 342 LINE",
"292 342 LINE"
);
},
{
closed = 1;
nodes = (
"259 86 LINE",
"141 0 LINE",
"169 86 LINE"
);
},
{
closed = 1;
nodes = (
"151 433 LINE",
"200 415 LINE",
"200 288 LINE",
"0 433 LINE"
);
},
{
closed = 1;
nodes = (
"516 430 LINE",
"516 163 LINE",
"532 175 LINE",
"532 418 LINE",
"584 437 LINE",
"584 502 LINE",
"567 486 LINE",
"567 448 LINE"
);
},
{
closed = 1;
nodes = (
"584 156 LINE",
"567 144 LINE",
"567 107 LINE",
"413 107 LINE",
"396 90 LINE",
"584 90 LINE"
);
},
{
closed = 1;
nodes = (
"448 254 LINE",
"465 271 LINE",
"271 271 LINE",
"271 163 LINE",
"288 175 LINE",
"288 254 LINE"
);
},
{
closed = 1;
nodes = (
"323 107 LINE",
"169 107 LINE",
"152 90 LINE",
"340 90 LINE",
"340 156 LINE",
"323 144 LINE"
);
},
{
closed = 1;
nodes = (
"169 448 LINE",
"152 437 LINE",
"204 418 LINE",
"220 430 LINE"
);
},
{
closed = 1;
nodes = (
"413 448 LINE",
"396 437 LINE",
"448 418 LINE",
"465 430 LINE"
);
},
{
closed = 1;
nodes = (
"340 502 LINE",
"323 486 LINE",
"323 448 LINE",
"271 430 LINE",
"271 322 LINE",
"288 338 LINE",
"288 418 LINE",
"340 437 LINE"
);
}
);
width = 736;
}
);
unicode = 004F;
},
{
glyphname = P;
lastChange = "2013-09-07 20:21:49 -0500";
layers = (
{
layerId = "D4A81252-B0CF-4F3E-9514-5651FCA26467";
name = Regular;
paths = (
{
closed = 1;
nodes = (
"388 211 OFFCURVE",
"351 211 OFFCURVE",
"295 196 CURVE",
"247 96 OFFCURVE",
"195 9 OFFCURVE",
"122 8 CURVE SMOOTH",
"25 7 OFFCURVE",
"-11 85 OFFCURVE",
"3 131 CURVE SMOOTH",
"13 166 OFFCURVE",
"22 165 OFFCURVE",
"22 145 CURVE SMOOTH",
"22 135 OFFCURVE",
"49 76 OFFCURVE",
"118 79 CURVE SMOOTH",
"152 81 OFFCURVE",
"180 114 OFFCURVE",
"210 165 CURVE",
"149 138 LINE SMOOTH",
"134 130 OFFCURVE",
"133 132 OFFCURVE",
"135 145 CURVE SMOOTH",
"137 156 OFFCURVE",
"161 212 OFFCURVE",
"250 242 CURVE",
"317 377 OFFCURVE",
"405 561 OFFCURVE",
"584 654 CURVE SMOOTH",
"593 659 OFFCURVE",
"626 683 OFFCURVE",
"602 642 CURVE SMOOTH",
"518 506 OFFCURVE",
"494 386 OFFCURVE",
"498 294 CURVE",
"563 317 OFFCURVE",
"599 353 OFFCURVE",
"605 403 CURVE SMOOTH",
"607 424 OFFCURVE",
"613 424 OFFCURVE",
"624 412 CURVE SMOOTH",
"637 397 OFFCURVE",
"666 283 OFFCURVE",
"504 234 CURVE",
"525 128 OFFCURVE",
"583 67 OFFCURVE",
"614 72 CURVE SMOOTH",
"647 77 OFFCURVE",
"672 112 OFFCURVE",
"666 161 CURVE SMOOTH",
"664 190 OFFCURVE",
"675 180 OFFCURVE",
"685 170 CURVE SMOOTH",
"715 141 OFFCURVE",
"712 47 OFFCURVE",
"652 21 CURVE SMOOTH",
"566 -17 OFFCURVE",
"484 72 OFFCURVE",
"453 223 CURVE"
);
},
{
closed = 1;
nodes = (
"401 419 OFFCURVE",
"362 340 OFFCURVE",
"325 258 CURVE",
"326 259 OFFCURVE",
"326 259 OFFCURVE",
"327 259 CURVE SMOOTH",
"372 264 OFFCURVE",
"411 269 OFFCURVE",
"446 278 CURVE",
"439 334 OFFCURVE",
"440 396 OFFCURVE",
"449 462 CURVE"
);
}
);
width = 705;
}
);
unicode = 0050;
},
{
glyphname = Q;
lastChange = "2013-09-07 20:22:15 -0500";
layers = (
{
layerId = "D4A81252-B0CF-4F3E-9514-5651FCA26467";
name = Regular;
paths = (
{
closed = 1;
nodes = (
"571 733 OFFCURVE",
"512 668 OFFCURVE",
"512 630 CURVE",
"577 616 OFFCURVE",
"635 551 OFFCURVE",
"609 382 CURVE SMOOTH",
"588 244 OFFCURVE",
"506 157 OFFCURVE",
"455 156 CURVE",
"487 202 OFFCURVE",
"516 254 OFFCURVE",
"535 311 CURVE SMOOTH",
"552 365 OFFCURVE",
"560 410 OFFCURVE",
"560 448 CURVE SMOOTH",
"560 500 OFFCURVE",
"546 538 OFFCURVE",
"527 564 CURVE SMOOTH",
"517 576 OFFCURVE",
"506 586 OFFCURVE",
"495 592 CURVE SMOOTH",
"483 598 OFFCURVE",
"470 602 OFFCURVE",
"460 602 CURVE SMOOTH",
"433 602 OFFCURVE",
"407 591 OFFCURVE",
"386 574 CURVE SMOOTH",
"354 547 OFFCURVE",
"330 507 OFFCURVE",
"313 460 CURVE SMOOTH",
"296 413 OFFCURVE",
"286 359 OFFCURVE",
"286 307 CURVE SMOOTH",
"286 267 OFFCURVE",
"292 227 OFFCURVE",
"305 192 CURVE SMOOTH",
"313 171 OFFCURVE",
"324 151 OFFCURVE",
"338 135 CURVE",
"329 126 OFFCURVE",
"320 118 OFFCURVE",
"311 112 CURVE SMOOTH",
"291 99 OFFCURVE",
"272 92 OFFCURVE",
"253 92 CURVE SMOOTH",
"243 92 OFFCURVE",
"234 93 OFFCURVE",
"225 97 CURVE SMOOTH",
"212 101 OFFCURVE",
"203 110 OFFCURVE",
"196 124 CURVE SMOOTH",
"190 138 OFFCURVE",
"186 158 OFFCURVE",
"186 182 CURVE SMOOTH",
"186 241 OFFCURVE",
"208 323 OFFCURVE",
"240 404 CURVE SMOOTH",
"271 481 OFFCURVE",
"313 558 OFFCURVE",
"354 616 CURVE",
"345 617 OFFCURVE",
"334 617 OFFCURVE",
"326 617 CURVE SMOOTH",
"215 617 OFFCURVE",
"134 591 OFFCURVE",
"81 554 CURVE SMOOTH",
"27 516 OFFCURVE",
"1 466 OFFCURVE",
"1 420 CURVE SMOOTH",
"1 389 OFFCURVE",
"12 361 OFFCURVE",
"34 340 CURVE SMOOTH",
"46 328 OFFCURVE",
"61 321 OFFCURVE",
"78 321 CURVE SMOOTH",
"91 321 OFFCURVE",
"103 325 OFFCURVE",
"112 334 CURVE SMOOTH",
"123 344 OFFCURVE",
"129 358 OFFCURVE",
"128 373 CURVE SMOOTH",
"127 388 OFFCURVE",
"121 402 OFFCURVE",
"110 413 CURVE SMOOTH",
"104 420 OFFCURVE",
"96 426 OFFCURVE",
"88 429 CURVE",
"93 439 OFFCURVE",
"103 450 OFFCURVE",
"115 460 CURVE SMOOTH",
"134 474 OFFCURVE",
"162 487 OFFCURVE",
"199 493 CURVE",
"176 453 OFFCURVE",
"156 412 OFFCURVE",
"141 373 CURVE SMOOTH",
"113 303 OFFCURVE",
"98 236 OFFCURVE",
"98 178 CURVE SMOOTH",
"98 138 OFFCURVE",
"105 103 OFFCURVE",
"121 74 CURVE SMOOTH",
"136 44 OFFCURVE",
"161 21 OFFCURVE",
"194 9 CURVE SMOOTH",
"208 3 OFFCURVE",
"224 0 OFFCURVE",
"239 0 CURVE SMOOTH",
"269 0 OFFCURVE",
"299 10 OFFCURVE",
"328 27 CURVE SMOOTH",
"351 41 OFFCURVE",
"374 60 OFFCURVE",
"395 82 CURVE",
"440 57 OFFCURVE",
"545 47 OFFCURVE",
"625 189 CURVE SMOOTH",
"720 359 OFFCURVE",
"724 610 OFFCURVE",
"636 681 CURVE SMOOTH"
);
},
{
closed = 1;
nodes = (
"467 359 OFFCURVE",
"427 264 OFFCURVE",
"392 205 CURVE",
"358 271 OFFCURVE",
"363 370 OFFCURVE",
"392 439 CURVE SMOOTH",
"417 498 OFFCURVE",
"467 513 OFFCURVE",
"467 439 CURVE SMOOTH"
);
}
);
width = 702;
}
);
unicode = 0051;
},
{
glyphname = R;
lastChange = "2013-09-07 18:31:00 -0500";
layers = (
{
layerId = "D4A81252-B0CF-4F3E-9514-5651FCA26467";
name = Regular;
paths = (
{
closed = 1;
nodes = (
"437 664 OFFCURVE",
"425 671 OFFCURVE",
"411 678 CURVE SMOOTH",
"303 727 OFFCURVE",
"146 704 OFFCURVE",
"68 628 CURVE SMOOTH",
"18 579 OFFCURVE",
"-7 520 OFFCURVE",
"2 471 CURVE SMOOTH",
"7 445 OFFCURVE",
"21 424 OFFCURVE",
"43 415 CURVE SMOOTH",
"69 403 OFFCURVE",
"91 403 OFFCURVE",
"110 413 CURVE SMOOTH",
"149 434 OFFCURVE",
"159 492 OFFCURVE",
"159 494 CURVE",
"160 497 LINE",
"156 497 LINE SMOOTH",
"147 497 OFFCURVE",
"135 499 OFFCURVE",
"132 510 CURVE SMOOTH",
"132 514 LINE SMOOTH",
"132 533 OFFCURVE",
"156 564 OFFCURVE",
"188 579 CURVE",
"188 161 LINE",
"154 126 OFFCURVE",
"135 89 OFFCURVE",
"135 59 CURVE SMOOTH",
"135 52 OFFCURVE",
"136 45 OFFCURVE",
"138 39 CURVE SMOOTH",
"144 21 OFFCURVE",
"159 9 OFFCURVE",
"181 5 CURVE SMOOTH",
"210 0 OFFCURVE",
"243 10 OFFCURVE",
"268 31 CURVE SMOOTH",
"292 51 OFFCURVE",
"305 78 OFFCURVE",
"305 107 CURVE SMOOTH",
"305 318 LINE",
"385 346 OFFCURVE",
"459 379 OFFCURVE",
"492 448 CURVE SMOOTH",
"502 468 OFFCURVE",
"509 492 OFFCURVE",
"511 520 CURVE SMOOTH",
"512 539 OFFCURVE",
"510 557 OFFCURVE",
"505 574 CURVE SMOOTH",
"497 606 OFFCURVE",
"477 634 OFFCURVE",
"448 655 CURVE SMOOTH"
);
},
{
closed = 1;
nodes = (
"308 418 LINE",
"308 600 LINE",
"321 601 LINE SMOOTH",
"377 605 OFFCURVE",
"409 579 OFFCURVE",
"415 526 CURVE SMOOTH",
"421 473 OFFCURVE",
"386 433 OFFCURVE",
"324 422 CURVE SMOOTH"
);
}
);
width = 600;
}
);
unicode = 0052;
},
{
glyphname = S;
lastChange = "2013-09-07 20:21:49 -0500";
layers = (
{
layerId = "D4A81252-B0CF-4F3E-9514-5651FCA26467";
name = Regular;
paths = (
{
closed = 1;
nodes = (
"471 244 OFFCURVE",
"469 252 OFFCURVE",
"464 259 CURVE",
"457 247 OFFCURVE",
"445 242 OFFCURVE",
"432 245 CURVE SMOOTH",
"420 248 OFFCURVE",
"411 257 OFFCURVE",
"411 264 CURVE SMOOTH",
"411 442 LINE",
"414 441 LINE SMOOTH",
"427 436 OFFCURVE",
"436 423 OFFCURVE",
"439 407 CURVE SMOOTH",
"440 404 OFFCURVE",
"440 401 OFFCURVE",
"440 398 CURVE SMOOTH",
"440 387 OFFCURVE",
"436 378 OFFCURVE",
"430 370 CURVE",
"442 372 OFFCURVE",
"478 383 OFFCURVE",
"478 428 CURVE SMOOTH",
"478 470 OFFCURVE",
"444 496 OFFCURVE",
"412 502 CURVE SMOOTH",
"411 502 LINE",
"411 626 LINE SMOOTH",
"411 634 OFFCURVE",
"420 643 OFFCURVE",
"432 645 CURVE SMOOTH",
"445 649 OFFCURVE",
"457 643 OFFCURVE",
"464 632 CURVE",
"469 639 OFFCURVE",
"471 647 OFFCURVE",
"471 655 CURVE SMOOTH",
"471 666 OFFCURVE",
"467 677 OFFCURVE",
"459 686 CURVE SMOOTH",
"442 705 OFFCURVE",
"413 705 OFFCURVE",
"382 686 CURVE SMOOTH",
"381 685 LINE",
"380 686 LINE SMOOTH",
"349 705 OFFCURVE",
"321 705 OFFCURVE",
"303 686 CURVE SMOOTH",
"295 677 OFFCURVE",
"291 666 OFFCURVE",
"291 655 CURVE SMOOTH",
"291 647 OFFCURVE",
"294 639 OFFCURVE",
"298 632 CURVE",
"306 643 OFFCURVE",
"317 649 OFFCURVE",
"330 645 CURVE SMOOTH",
"342 643 OFFCURVE",
"351 634 OFFCURVE",
"352 626 CURVE SMOOTH",
"352 488 LINE",
"351 487 LINE SMOOTH",
"326 474 OFFCURVE",
"305 457 OFFCURVE",
"286 434 CURVE SMOOTH",
"285 433 LINE",
"283 434 LINE",
"283 434 OFFCURVE",
"125 627 OFFCURVE",
"124 629 CURVE",
"126 637 OFFCURVE",
"137 644 OFFCURVE",
"148 646 CURVE SMOOTH",
"160 648 OFFCURVE",
"171 642 OFFCURVE",
"177 632 CURVE",
"182 639 OFFCURVE",
"184 647 OFFCURVE",
"184 655 CURVE SMOOTH",
"184 666 OFFCURVE",
"180 677 OFFCURVE",
"172 686 CURVE SMOOTH",
"155 705 OFFCURVE",
"126 705 OFFCURVE",
"95 686 CURVE SMOOTH",
"94 685 LINE",
"93 686 LINE SMOOTH",
"62 705 OFFCURVE",
"33 705 OFFCURVE",
"16 686 CURVE SMOOTH",
"8 677 OFFCURVE",
"4 666 OFFCURVE",
"4 655 CURVE SMOOTH",
"4 647 OFFCURVE",
"7 639 OFFCURVE",
"11 632 CURVE",
"18 643 OFFCURVE",
"30 649 OFFCURVE",
"43 645 CURVE SMOOTH",
"55 643 OFFCURVE",
"64 634 OFFCURVE",
"64 626 CURVE SMOOTH",
"64 502 LINE",
"63 501 LINE SMOOTH",
"32 495 OFFCURVE",
"0 469 OFFCURVE",
"0 428 CURVE SMOOTH",
"0 383 OFFCURVE",
"36 372 OFFCURVE",
"48 370 CURVE",
"42 378 OFFCURVE",
"37 387 OFFCURVE",
"37 398 CURVE SMOOTH",
"37 401 OFFCURVE",
"38 403 OFFCURVE",
"38 406 CURVE SMOOTH",
"40 421 OFFCURVE",
"49 434 OFFCURVE",
"62 440 CURVE SMOOTH",
"64 441 LINE",
"64 264 LINE SMOOTH",
"64 257 OFFCURVE",
"55 248 OFFCURVE",
"43 245 CURVE SMOOTH",
"30 242 OFFCURVE",
"18 247 OFFCURVE",
"11 259 CURVE",
"7 252 OFFCURVE",
"4 244 OFFCURVE",
"4 236 CURVE SMOOTH",
"4 225 OFFCURVE",
"8 214 OFFCURVE",
"16 205 CURVE SMOOTH",
"33 186 OFFCURVE",
"62 186 OFFCURVE",
"93 205 CURVE SMOOTH",
"94 206 LINE",
"95 205 LINE SMOOTH",
"126 186 OFFCURVE",
"155 186 OFFCURVE",
"172 205 CURVE SMOOTH",
"180 214 OFFCURVE",
"184 225 OFFCURVE",
"184 236 CURVE SMOOTH",
"184 244 OFFCURVE",
"182 252 OFFCURVE",
"177 259 CURVE",
"170 247 OFFCURVE",
"158 242 OFFCURVE",
"145 245 CURVE SMOOTH",
"133 248 OFFCURVE",
"124 257 OFFCURVE",
"124 264 CURVE SMOOTH",
"124 428 LINE",
"127 426 LINE SMOOTH",
"171 396 OFFCURVE",
"205 335 OFFCURVE",
"209 296 CURVE",
"209 93 LINE SMOOTH",
"209 72 OFFCURVE",
"194 55 OFFCURVE",
"180 52 CURVE SMOOTH",
"170 49 OFFCURVE",
"162 54 OFFCURVE",
"156 63 CURVE",
"151 56 OFFCURVE",
"149 48 OFFCURVE",
"149 41 CURVE SMOOTH",
"149 31 OFFCURVE",
"152 22 OFFCURVE",
"159 14 CURVE SMOOTH",
"176 -5 OFFCURVE",
"206 -4 OFFCURVE",
"238 16 CURVE SMOOTH",
"240 16 LINE SMOOTH",
"272 -4 OFFCURVE",
"301 -5 OFFCURVE",
"318 14 CURVE SMOOTH",
"325 22 OFFCURVE",
"329 31 OFFCURVE",
"329 41 CURVE SMOOTH",
"329 48 OFFCURVE",
"326 56 OFFCURVE",
"322 63 CURVE",
"316 54 OFFCURVE",
"308 50 OFFCURVE",
"298 52 CURVE SMOOTH",
"284 56 OFFCURVE",
"268 73 OFFCURVE",
"268 93 CURVE SMOOTH",
"268 294 LINE",
"269 307 OFFCURVE",
"275 325 OFFCURVE",
"283 344 CURVE SMOOTH",
"285 346 LINE",
"287 344 LINE",
"287 344 OFFCURVE",
"351 265 OFFCURVE",
"351 263 CURVE SMOOTH",
"351 255 OFFCURVE",
"341 247 OFFCURVE",
"329 245 CURVE SMOOTH",
"323 244 OFFCURVE",
"308 243 OFFCURVE",
"298 258 CURVE",
"294 252 OFFCURVE",
"291 244 OFFCURVE",
"291 236 CURVE SMOOTH",
"291 225 OFFCURVE",
"295 214 OFFCURVE",
"303 205 CURVE SMOOTH",
"321 186 OFFCURVE",
"349 186 OFFCURVE",
"380 205 CURVE SMOOTH",
"381 206 LINE",
"382 205 LINE SMOOTH",
"413 186 OFFCURVE",
"442 186 OFFCURVE",
"459 205 CURVE SMOOTH",
"467 214 OFFCURVE",
"471 225 OFFCURVE",
"471 236 CURVE SMOOTH"
);
},
{
closed = 1;
nodes = (
"237 354 LINE SMOOTH",
"207 433 OFFCURVE",
"160 471 OFFCURVE",
"125 488 CURVE SMOOTH",
"124 489 LINE",
"124 544 LINE",
"253 385 LINE",
"254 384 LINE",
"239 350 LINE"
);
},
{
closed = 1;
nodes = (
"316 395 LINE",
"317 396 LINE SMOOTH",
"327 407 OFFCURVE",
"338 417 OFFCURVE",
"349 425 CURVE SMOOTH",
"352 427 LINE",
"352 352 LINE"
);
}
);
width = 478;
}
);
unicode = 0053;
},
{
glyphname = T;
lastChange = "2013-09-07 20:21:49 -0500";
layers = (
{
layerId = "D4A81252-B0CF-4F3E-9514-5651FCA26467";
name = Regular;
paths = (
{
closed = 1;
nodes = (
"543 15 LINE",
"695 15 LINE",
"483 545 LINE",
"348 296 LINE",
"234 506 LINE",
"287 540 OFFCURVE",
"343 569 OFFCURVE",
"369 582 CURVE",
"335 598 LINE",
"304 583 OFFCURVE",
"261 559 OFFCURVE",
"219 533 CURVE",
"219 534 LINE",
"212 547 LINE",
"203 523 LINE",
"188 513 LINE SMOOTH",
"40 411 OFFCURVE",
"51 342 OFFCURVE",
"93 307 CURVE SMOOTH",
"100 301 OFFCURVE",
"109 295 OFFCURVE",
"117 291 CURVE SMOOTH",
"129 285 OFFCURVE",
"140 280 OFFCURVE",
"152 277 CURVE SMOOTH",
"153 276 OFFCURVE",
"154 276 OFFCURVE",
"156 275 CURVE",
"150 275 LINE",
"71 65 LINE",
"117 65 LINE",
"224 337 LINE",
"343 117 LINE",
"348 107 LINE",
"353 117 LINE",
"472 337 LINE",
"578 65 LINE",
"624 65 LINE",
"622 70 LINE",
"542 275 LINE",
"478 438 LINE",
"353 207 LINE",
"348 198 LINE",
"343 207 LINE",
"217 438 LINE",
"151 278 LINE",
"150 278 OFFCURVE",
"149 279 OFFCURVE",
"148 279 CURVE",
"147 280 OFFCURVE",
"147 280 OFFCURVE",
"146 280 CURVE",
"145 281 OFFCURVE",
"144 282 OFFCURVE",
"143 282 CURVE SMOOTH",
"141 284 LINE",
"139 285 LINE SMOOTH",
"134 288 OFFCURVE",
"131 291 OFFCURVE",
"129 293 CURVE SMOOTH",
"127 295 LINE",
"201 484 LINE",
"208 500 LINE",
"212 512 LINE",
"216 506 LINE",
"220 497 LINE",
"348 262 LINE",
"483 512 LINE",
"671 32 LINE",
"628 56 LINE",
"571 56 LINE",
"471 311 LINE",
"348 84 LINE",
"225 311 LINE",
"125 56 LINE",
"67 56 LINE",
"24 32 LINE",
"120 277 LINE",
"121 277 LINE",
"109 280 LINE",
"2 334 OFFCURVE",
"30 471 OFFCURVE",
"327 609 CURVE SMOOTH",
"438 661 OFFCURVE",
"514 700 OFFCURVE",
"514 700 CURVE",
"486 689 LINE",
"486 689 OFFCURVE",
"363 643 OFFCURVE",
"338 633 CURVE SMOOTH",
"326 630 OFFCURVE",
"310 627 OFFCURVE",
"298 628 CURVE SMOOTH",
"289 628 OFFCURVE",
"273 630 OFFCURVE",
"255 637 CURVE SMOOTH",
"249 640 OFFCURVE",
"218 653 OFFCURVE",
"191 665 CURVE SMOOTH",
"190 665 OFFCURVE",
"189 666 OFFCURVE",
"189 666 CURVE",
"170 676 LINE",
"172 668 OFFCURVE",
"167 622 OFFCURVE",
"137 581 CURVE SMOOTH",
"105 536 OFFCURVE",
"-9 437 OFFCURVE",
"26 344 CURVE SMOOTH",
"45 292 OFFCURVE",
"94 282 OFFCURVE",
"106 280 CURVE",
"0 15 LINE",
"152 15 LINE",
"230 215 LINE",
"347 0 LINE",
"465 215 LINE"
);
},
{
closed = 1;
nodes = (
"111 312 OFFCURVE",
"108 318 OFFCURVE",
"105 322 CURVE SMOOTH",
"102 327 OFFCURVE",
"101 331 OFFCURVE",
"101 331 CURVE",
"98 344 LINE SMOOTH",
"93 385 OFFCURVE",
"131 429 OFFCURVE",
"181 469 CURVE",
"116 306 LINE"
);
}
);
width = 700;
}
);
unicode = 0054;
},
{
glyphname = U;
lastChange = "2013-09-07 19:53:03 -0500";
layers = (
{
layerId = "D4A81252-B0CF-4F3E-9514-5651FCA26467";
name = Regular;
paths = (
{
closed = 1;
nodes = (
"467 503 OFFCURVE",
"472 542 OFFCURVE",
"494 580 CURVE",
"435 595 OFFCURVE",
"390 651 OFFCURVE",
"375 700 CURVE",
"350 676 OFFCURVE",
"326 671 OFFCURVE",
"288 671 CURVE SMOOTH",
"35 671 LINE",
"0 584 LINE",
"21 575 OFFCURVE",
"35 556 OFFCURVE",
"35 532 CURVE SMOOTH",
"35 136 LINE SMOOTH",
"35 113 OFFCURVE",
"21 93 OFFCURVE",
"0 84 CURVE",
"35 0 LINE",
"131 0 LINE",
"166 84 LINE",
"145 92 OFFCURVE",
"131 113 OFFCURVE",
"131 136 CURVE SMOOTH",
"131 292 LINE",
"288 292 LINE SMOOTH",
"326 292 OFFCURVE",
"350 283 OFFCURVE",
"375 259 CURVE",
"391 308 OFFCURVE",
"439 345 OFFCURVE",
"498 359 CURVE",
"475 398 OFFCURVE",
"467 432 OFFCURVE",
"467 468 CURVE SMOOTH"
);
},
{
closed = 1;
nodes = (
"132 378 LINE",
"132 587 LINE",
"333 587 LINE SMOOTH",
"365 587 OFFCURVE",
"384 567 OFFCURVE",
"384 541 CURVE SMOOTH",
"384 421 LINE SMOOTH",
"384 393 OFFCURVE",
"369 378 OFFCURVE",
"333 378 CURVE SMOOTH"
);
}
);
width = 498;
}
);
unicode = 0055;
},
{
glyphname = V;
lastChange = "2013-09-07 19:54:38 -0500";
layers = (
{
layerId = "D4A81252-B0CF-4F3E-9514-5651FCA26467";
name = Regular;
paths = (
{
closed = 1;
nodes = (
"499 67 OFFCURVE",
"470 59 OFFCURVE",
"451 59 CURVE SMOOTH",
"180 59 LINE",
"180 127 LINE",
"214 118 OFFCURVE",
"249 111 OFFCURVE",
"282 109 CURVE SMOOTH",
"411 101 OFFCURVE",
"533 136 OFFCURVE",
"533 256 CURVE SMOOTH",
"533 316 OFFCURVE",
"488 370 OFFCURVE",
"396 377 CURVE",
"396 427 LINE",
"464 427 LINE",
"439 472 LINE",
"298 472 LINE",
"273 427 LINE",
"341 427 LINE",
"341 377 LINE",
"180 377 LINE",
"180 538 LINE",
"240 539 OFFCURVE",
"354 534 OFFCURVE",
"443 502 CURVE",
"451 516 OFFCURVE",
"465 539 OFFCURVE",
"483 569 CURVE",
"458 565 OFFCURVE",
"428 564 OFFCURVE",
"400 571 CURVE SMOOTH",
"367 579 OFFCURVE",
"268 597 OFFCURVE",
"180 596 CURVE",
"180 648 LINE",
"220 648 LINE",
"220 700 LINE",
"80 700 LINE",
"80 648 LINE",
"121 648 LINE",
"121 594 LINE",
"53 585 OFFCURVE",
"0 526 OFFCURVE",
"0 455 CURVE SMOOTH",
"0 385 OFFCURVE",
"53 330 OFFCURVE",
"121 321 CURVE",
"121 209 LINE",
"105 215 OFFCURVE",
"90 222 OFFCURVE",
"75 229 CURVE",
"37 180 LINE",
"62 168 OFFCURVE",
"91 156 OFFCURVE",
"121 146 CURVE",
"121 59 LINE",
"80 59 LINE",
"80 0 LINE",
"451 0 LINE SMOOTH",
"498 0 OFFCURVE",
"535 16 OFFCURVE",
"564 48 CURVE",
"522 94 LINE"
);
},
{
closed = 1;
nodes = (
"79 381 OFFCURVE",
"53 416 OFFCURVE",
"53 459 CURVE SMOOTH",
"53 498 OFFCURVE",
"82 531 OFFCURVE",
"121 540 CURVE",
"121 376 LINE"
);
},
{
closed = 1;
nodes = (
"341 267 LINE",
"396 267 LINE",
"396 318 LINE",
"428 314 OFFCURVE",
"468 301 OFFCURVE",
"468 248 CURVE SMOOTH",
"468 172 OFFCURVE",
"335 145 OFFCURVE",
"180 189 CURVE",
"180 319 LINE",
"341 319 LINE"
);
}
);
width = 564;
}
);
unicode = 0056;
},
{
glyphname = W;
lastChange = "2013-09-07 20:21:49 -0500";
layers = (
{
layerId = "D4A81252-B0CF-4F3E-9514-5651FCA26467";
name = Regular;
paths = (
{
closed = 1;
nodes = (
"208 109 OFFCURVE",
"284 26 OFFCURVE",
"477 26 CURVE SMOOTH",
"646 26 OFFCURVE",
"777 109 OFFCURVE",
"838 212 CURVE",
"706 212 LINE",
"645 165 OFFCURVE",
"569 127 OFFCURVE",
"473 127 CURVE SMOOTH",
"384 127 OFFCURVE",
"291 164 OFFCURVE",
"247 232 CURVE SMOOTH",
"229 258 OFFCURVE",
"219 289 OFFCURVE",
"219 324 CURVE SMOOTH",
"219 384 OFFCURVE",
"293 509 OFFCURVE",
"482 509 CURVE SMOOTH",
"593 509 OFFCURVE",
"681 458 OFFCURVE",
"709 413 CURVE",
"842 413 LINE",
"780 536 OFFCURVE",
"621 609 OFFCURVE",
"461 609 CURVE SMOOTH",
"304 609 OFFCURVE",
"184 519 OFFCURVE",
"115 437 CURVE SMOOTH",
"24 329 OFFCURVE",
"0 321 OFFCURVE",
"0 321 CURVE",
"59 278 OFFCURVE",
"82 243 OFFCURVE",
"119 204 CURVE SMOOTH"
);
},
{
closed = 1;
nodes = (
"531 350 LINE",
"531 336 LINE",
"561 336 LINE",
"561 375 LINE",
"437 375 LINE",
"437 350 LINE",
"457 350 LINE",
"457 268 LINE",
"437 268 LINE",
"437 243 LINE",
"561 243 LINE",
"561 282 LINE",
"531 282 LINE",
"531 268 LINE",
"487 268 LINE",
"487 296 LINE",
"523 296 LINE",
"523 321 LINE",
"487 321 LINE",
"487 350 LINE"
);
},
{
closed = 1;
nodes = (
"389 268 LINE",
"374 303 LINE",
"396 321 LINE",
"396 350 LINE",
"366 375 LINE",
"268 375 LINE",
"268 350 LINE",
"287 350 LINE",
"287 268 LINE",
"268 268 LINE",
"268 243 LINE",
"337 243 LINE",
"337 268 LINE",
"317 268 LINE",
"317 297 LINE",
"345 297 LINE",
"351 282 LINE",
"368 243 LINE",
"406 243 LINE",
"406 268 LINE"
);
},
{
closed = 1;
nodes = (
"317 321 LINE",
"317 350 LINE",
"359 350 LINE",
"366 344 LINE",
"366 327 LINE",
"359 321 LINE"
);
},
{
closed = 1;
nodes = (
"715 350 LINE",
"685 375 LINE",
"592 375 LINE",
"592 350 LINE",
"612 350 LINE",
"612 268 LINE",
"592 268 LINE",
"592 243 LINE",
"685 243 LINE",
"715 268 LINE"
);
},
{
closed = 1;
nodes = (
"641 268 LINE",
"641 350 LINE",
"678 350 LINE",
"686 344 LINE",
"686 274 LINE",
"678 268 LINE"
);
},
{
closed = 1;
nodes = (
"783 243 LINE",
"820 243 LINE",
"850 268 LINE",
"850 296 LINE",
"820 321 LINE",
"783 321 LINE",
"776 327 LINE",
"776 344 LINE",
"783 350 LINE",
"813 350 LINE",
"820 344 LINE",
"820 336 LINE",
"850 336 LINE",
"850 375 LINE",
"820 375 LINE",
"820 369 LINE",
"813 375 LINE",
"776 375 LINE",
"746 350 LINE",
"746 321 LINE",
"775 296 LINE",
"813 296 LINE",
"820 290 LINE",
"820 274 LINE",
"813 268 LINE",
"782 268 LINE",
"775 274 LINE",
"775 282 LINE",
"746 282 LINE",
"746 243 LINE",
"775 243 LINE",
"775 249 LINE"
);
}
);
width = 850;
}
);
unicode = 0057;
},
{
glyphname = X;
lastChange = "2013-09-07 20:21:49 -0500";
layers = (
{
layerId = "D4A81252-B0CF-4F3E-9514-5651FCA26467";
name = Regular;
paths = (
{
closed = 1;
nodes = (
"0 539 OFFCURVE",
"155 694 OFFCURVE",
"347 694 CURVE SMOOTH",
"538 694 OFFCURVE",
"694 539 OFFCURVE",
"694 347 CURVE SMOOTH",
"694 155 OFFCURVE",
"538 0 OFFCURVE",
"347 0 CURVE SMOOTH",
"155 0 OFFCURVE",
"0 155 OFFCURVE",
"0 347 CURVE SMOOTH"
);
},
{
closed = 1;
nodes = (
"488 91 OFFCURVE",
"603 205 OFFCURVE",
"603 347 CURVE SMOOTH",
"603 488 OFFCURVE",
"488 603 OFFCURVE",
"347 603 CURVE SMOOTH",
"205 603 OFFCURVE",
"91 488 OFFCURVE",
"91 347 CURVE SMOOTH",
"91 205 OFFCURVE",
"205 91 OFFCURVE",
"347 91 CURVE SMOOTH"
);
},
{
closed = 1;
nodes = (
"436 237 OFFCURVE",
"394 213 OFFCURVE",
"347 213 CURVE SMOOTH",
"273 213 OFFCURVE",
"213 273 OFFCURVE",
"213 347 CURVE SMOOTH",
"213 421 OFFCURVE",
"273 481 OFFCURVE",
"347 481 CURVE SMOOTH",
"396 481 OFFCURVE",
"438 455 OFFCURVE",
"462 416 CURVE",
"528 480 LINE",
"487 536 OFFCURVE",
"421 572 OFFCURVE",
"347 572 CURVE SMOOTH",
"223 572 OFFCURVE",
"122 471 OFFCURVE",
"122 347 CURVE SMOOTH",
"122 223 OFFCURVE",
"223 122 OFFCURVE",
"347 122 CURVE SMOOTH",
"420 122 OFFCURVE",
"485 157 OFFCURVE",
"526 212 CURVE",
"460 275 LINE"
);
},
{
closed = 1;
nodes = (
"307 406 LINE",
"348 406 LINE",
"348 324 LINE SMOOTH",
"348 294 OFFCURVE",
"341 287 OFFCURVE",
"317 287 CURVE SMOOTH",
"275 287 LINE SMOOTH",
"256 287 OFFCURVE",
"249 300 OFFCURVE",
"249 326 CURVE SMOOTH",
"249 406 LINE",
"290 406 LINE",
"290 325 LINE SMOOTH",
"290 314 OFFCURVE",
"307 314 OFFCURVE",
"307 325 CURVE SMOOTH"
);
},
{
closed = 1;
nodes = (
"457 350 OFFCURVE",
"460 358 OFFCURVE",
"460 373 CURVE SMOOTH",
"460 401 OFFCURVE",
"450 406 OFFCURVE",
"426 406 CURVE SMOOTH",
"362 406 LINE",
"362 287 LINE",
"426 287 LINE SMOOTH",
"449 287 OFFCURVE",
"460 291 OFFCURVE",
"460 318 CURVE SMOOTH",
"460 328 OFFCURVE",
"460 340 OFFCURVE",
"449 346 CURVE"
);
},
{
closed = 1;
nodes = (
"421 313 OFFCURVE",
"413 314 OFFCURVE",
"405 314 CURVE",
"405 330 LINE",
"418 330 OFFCURVE",
"419 331 OFFCURVE",
"421 325 CURVE SMOOTH",
"422 324 OFFCURVE",
"421 321 OFFCURVE",
"421 319 CURVE SMOOTH"
);
},
{
closed = 1;
nodes = (
"422 361 OFFCURVE",
"412 362 OFFCURVE",
"405 362 CURVE",
"405 378 LINE",
"417 378 OFFCURVE",
"422 379 OFFCURVE",
"422 374 CURVE SMOOTH",
"422 367 LINE SMOOTH"
);
},
{
closed = 1;
nodes = (
"562 287 OFFCURVE",
"574 293 OFFCURVE",
"574 312 CURVE SMOOTH",
"574 339 LINE SMOOTH",
"574 353 OFFCURVE",
"564 362 OFFCURVE",
"550 362 CURVE SMOOTH",
"521 362 LINE SMOOTH",
"513 362 OFFCURVE",
"514 373 OFFCURVE",
"514 377 CURVE SMOOTH",
"514 382 OFFCURVE",
"531 384 OFFCURVE",
"531 375 CURVE SMOOTH",
"531 370 LINE",
"574 370 LINE",
"574 397 OFFCURVE",
"569 406 OFFCURVE",
"541 406 CURVE SMOOTH",
"503 406 LINE SMOOTH",
"485 406 OFFCURVE",
"475 399 OFFCURVE",
"475 378 CURVE SMOOTH",
"474 357 OFFCURVE",
"475 366 OFFCURVE",
"475 359 CURVE SMOOTH",
"475 351 OFFCURVE",
"474 334 OFFCURVE",
"497 334 CURVE SMOOTH",
"527 334 LINE SMOOTH",
"535 334 OFFCURVE",
"533 324 OFFCURVE",
"533 324 CURVE",
"533 318 LINE SMOOTH",
"533 311 OFFCURVE",
"519 311 OFFCURVE",
"516 317 CURVE SMOOTH",
"514 320 OFFCURVE",
"515 326 OFFCURVE",
"515 326 CURVE SMOOTH",
"475 326 LINE",
"475 318 OFFCURVE",
"470 287 OFFCURVE",
"495 287 CURVE SMOOTH",
"541 287 LINE SMOOTH"
);
}
);
width = 694;
}
);
unicode = 0058;
},
{
glyphname = Y;
lastChange = "2013-09-07 20:21:49 -0500";
layers = (
{
layerId = "D4A81252-B0CF-4F3E-9514-5651FCA26467";
name = Regular;
paths = (
{
closed = 1;
nodes = (
"489 669 LINE",
"436 575 LINE",
"431 567 LINE",
"349 422 LINE",
"346 457 LINE SMOOTH",
"342 498 OFFCURVE",
"326 533 OFFCURVE",
"300 559 CURVE",
"300 559 OFFCURVE",
"286 573 OFFCURVE",
"284 576 CURVE",
"283 576 LINE",
"279 580 OFFCURVE",
"275 584 OFFCURVE",
"271 587 CURVE SMOOTH",
"239 613 OFFCURVE",
"196 624 OFFCURVE",
"152 620 CURVE SMOOTH",
"111 616 OFFCURVE",
"73 597 OFFCURVE",
"45 566 CURVE SMOOTH",
"18 536 OFFCURVE",
"2 496 OFFCURVE",
"2 456 CURVE SMOOTH",
"2 416 OFFCURVE",
"15 380 OFFCURVE",
"39 357 CURVE SMOOTH",
"55 341 LINE SMOOTH",
"70 325 OFFCURVE",
"90 316 OFFCURVE",
"110 314 CURVE",
"99 273 LINE",
"96 264 LINE",
"85 222 LINE",
"83 215 LINE SMOOTH",
"81 207 OFFCURVE",
"80 204 OFFCURVE",
"79 203 CURVE",
"68 196 OFFCURVE",
"54 183 OFFCURVE",
"48 162 CURVE SMOOTH",
"38 124 LINE",
"68 94 LINE",
"79 100 LINE SMOOTH",
"85 104 OFFCURVE",
"94 109 OFFCURVE",
"105 115 CURVE",
"101 99 LINE",
"99 98 LINE SMOOTH",
"69 81 OFFCURVE",
"40 62 OFFCURVE",
"12 40 CURVE SMOOTH",
"0 30 LINE",
"23 0 LINE",
"36 10 LINE SMOOTH",
"62 31 OFFCURVE",
"90 49 OFFCURVE",
"118 65 CURVE",
"118 65 OFFCURVE",
"119 66 OFFCURVE",
"120 66 CURVE",
"154 57 LINE",
"157 57 LINE SMOOTH",
"161 60 OFFCURVE",
"166 62 OFFCURVE",
"172 65 CURVE SMOOTH",
"176 66 OFFCURVE",
"180 68 OFFCURVE",
"185 70 CURVE SMOOTH",
"247 98 OFFCURVE",
"367 139 OFFCURVE",
"538 114 CURVE SMOOTH",
"542 114 OFFCURVE",
"545 113 OFFCURVE",
"548 113 CURVE SMOOTH",
"559 111 LINE",
"564 110 LINE",
"569 130 LINE",
"604 127 LINE",
"608 157 LINE",
"577 170 LINE",
"582 190 LINE",
"566 193 LINE",
"556 196 LINE",
"553 196 LINE",
"552 206 LINE",
"529 229 LINE",
"529 229 OFFCURVE",
"523 230 OFFCURVE",
"518 230 CURVE",
"512 246 OFFCURVE",
"513 267 OFFCURVE",
"516 280 CURVE SMOOTH",
"539 360 LINE",
"543 376 LINE",
"549 395 LINE",
"553 412 LINE",
"559 434 LINE",
"562 444 LINE",
"606 602 LINE SMOOTH",
"606 603 OFFCURVE",
"607 604 OFFCURVE",
"607 605 CURVE",
"608 606 OFFCURVE",
"610 607 OFFCURVE",
"610 608 CURVE SMOOTH",
"619 614 OFFCURVE",
"632 623 OFFCURVE",
"639 647 CURVE SMOOTH",
"645 672 LINE",
"617 700 LINE"
);
},
{
closed = 1;
nodes = (
"22 27 LINE",
"49 48 OFFCURVE",
"77 68 OFFCURVE",
"107 84 CURVE",
"110 79 LINE",
"81 62 OFFCURVE",
"52 43 OFFCURVE",
"26 22 CURVE"
);
},
{
closed = 1;
nodes = (
"434 166 LINE",
"401 146 LINE",
"380 164 LINE",
"397 184 LINE"
);
},
{
closed = 1;
nodes = (
"364 166 OFFCURVE",
"353 165 OFFCURVE",
"343 163 CURVE",
"363 191 LINE",
"368 191 OFFCURVE",
"372 191 OFFCURVE",
"376 192 CURVE SMOOTH",
"383 192 OFFCURVE",
"390 193 OFFCURVE",
"397 193 CURVE",
"374 167 LINE"
);
},
{
closed = 1;
nodes = (
"405 193 LINE",
"422 194 OFFCURVE",
"439 194 OFFCURVE",
"456 193 CURVE",
"464 187 LINE",
"443 188 OFFCURVE",
"421 188 OFFCURVE",
"400 187 CURVE"
);
},
{
closed = 1;
nodes = (
"388 275 LINE",
"391 250 OFFCURVE",
"400 227 OFFCURVE",
"415 210 CURVE",
"392 209 OFFCURVE",
"370 208 OFFCURVE",
"348 205 CURVE"
);
},
{
closed = 1;
nodes = (
"334 162 LINE",
"324 160 OFFCURVE",
"313 159 OFFCURVE",
"303 157 CURVE",
"322 185 LINE",
"333 187 OFFCURVE",
"344 189 OFFCURVE",
"355 190 CURVE"
);
},
{
closed = 1;
nodes = (
"284 153 OFFCURVE",
"274 151 OFFCURVE",
"264 148 CURVE",
"281 178 LINE",
"314 184 LINE",
"295 155 LINE"
);
},
{
closed = 1;
nodes = (
"225 137 LINE",
"240 167 LINE",
"273 176 LINE",
"256 146 LINE"
);
},
{
closed = 1;
nodes = (
"234 262 LINE",
"240 202 LINE",
"255 188 LINE",
"240 184 OFFCURVE",
"224 179 OFFCURVE",
"210 175 CURVE"
);
},
{
closed = 1;
nodes = (
"217 134 LINE",
"207 130 OFFCURVE",
"197 127 OFFCURVE",
"187 123 CURVE",
"201 155 LINE",
"211 158 OFFCURVE",
"222 162 OFFCURVE",
"233 165 CURVE"
);
},
{
closed = 1;
nodes = (
"170 116 OFFCURVE",
"160 111 OFFCURVE",
"150 107 CURVE",
"162 139 LINE",
"172 144 OFFCURVE",
"182 148 OFFCURVE",
"193 152 CURVE",
"179 120 LINE"
);
},
{
closed = 1;
nodes = (
"133 99 OFFCURVE",
"124 94 OFFCURVE",
"114 89 CURVE",
"124 122 LINE",
"134 127 OFFCURVE",
"144 132 OFFCURVE",
"154 136 CURVE",
"143 103 LINE"
);
},
{
closed = 1;
nodes = (
"118 83 LINE",
"145 98 LINE",
"180 86 LINE",
"171 82 OFFCURVE",
"162 78 OFFCURVE",
"153 73 CURVE"
);
},
{
closed = 1;
nodes = (
"153 101 LINE",
"163 106 OFFCURVE",
"172 110 OFFCURVE",
"182 114 CURVE",
"215 100 LINE",
"206 97 OFFCURVE",
"197 93 OFFCURVE",
"188 89 CURVE"
);
},
{
closed = 1;
nodes = (
"190 117 LINE",
"200 121 OFFCURVE",
"209 125 OFFCURVE",
"219 128 CURVE",
"252 112 LINE",
"224 103 LINE"
);
},
{
closed = 1;
nodes = (
"227 131 LINE",
"257 140 LINE",
"289 122 LINE",
"279 120 OFFCURVE",
"270 117 OFFCURVE",
"260 114 CURVE"
);
},
{
closed = 1;
nodes = (
"266 142 LINE",
"276 144 OFFCURVE",
"286 147 OFFCURVE",
"296 149 CURVE",
"326 129 LINE",
"317 128 OFFCURVE",
"307 126 OFFCURVE",
"297 124 CURVE"
);
},
{
closed = 1;
nodes = (
"305 151 LINE",
"315 153 OFFCURVE",
"325 154 OFFCURVE",
"335 156 CURVE",
"364 134 LINE",
"335 131 LINE"
);
},
{
closed = 1;
nodes = (
"378 136 OFFCURVE",
"376 135 OFFCURVE",
"373 135 CURVE",
"344 157 LINE",
"354 158 OFFCURVE",
"365 160 OFFCURVE",
"375 160 CURVE",
"403 137 LINE",
"395 137 OFFCURVE",
"388 136 OFFCURVE",
"380 136 CURVE SMOOTH"
);
},
{
closed = 1;
nodes = (
"507 137 OFFCURVE",
"459 139 OFFCURVE",
"411 137 CURVE",
"404 143 LINE",
"455 146 OFFCURVE",
"505 139 OFFCURVE",
"553 129 CURVE",
"553 128 LINE"
);
},
{
closed = 1;
nodes = (
"546 181 OFFCURVE",
"554 180 OFFCURVE",
"563 178 CURVE",
"562 177 LINE",
"553 179 OFFCURVE",
"544 180 OFFCURVE",
"534 182 CURVE",
"538 183 LINE"
);
},
{
closed = 1;
nodes = (
"591 145 LINE",
"542 157 OFFCURVE",
"492 162 OFFCURVE",
"441 163 CURVE",
"446 166 LINE",
"440 169 LINE",
"492 168 OFFCURVE",
"542 159 OFFCURVE",
"591 146 CURVE"
);
},
{
closed = 1;
nodes = (
"603 648 OFFCURVE",
"593 641 OFFCURVE",
"586 636 CURVE SMOOTH",
"581 632 OFFCURVE",
"578 630 OFFCURVE",
"576 625 CURVE SMOOTH",
"486 299 LINE SMOOTH",
"480 279 OFFCURVE",
"481 246 OFFCURVE",
"494 228 CURVE SMOOTH",
"497 222 OFFCURVE",
"502 219 OFFCURVE",
"507 217 CURVE SMOOTH",
"509 216 OFFCURVE",
"511 215 OFFCURVE",
"513 215 CURVE SMOOTH",
"521 214 LINE",
"522 198 LINE",
"514 196 LINE SMOOTH",
"481 188 OFFCURVE",
"451 195 OFFCURVE",
"430 217 CURVE SMOOTH",
"405 243 OFFCURVE",
"396 286 OFFCURVE",
"408 327 CURVE",
"410 336 LINE SMOOTH",
"411 341 OFFCURVE",
"413 347 OFFCURVE",
"415 355 CURVE SMOOTH",
"438 437 LINE",
"314 221 LINE",
"295 218 OFFCURVE",
"270 214 OFFCURVE",
"255 210 CURVE",
"242 351 LINE",
"237 404 LINE",
"178 187 LINE",
"134 172 OFFCURVE",
"84 146 OFFCURVE",
"56 129 CURVE",
"63 157 LINE SMOOTH",
"69 176 OFFCURVE",
"81 187 OFFCURVE",
"88 192 CURVE SMOOTH",
"94 196 OFFCURVE",
"97 209 OFFCURVE",
"99 215 CURVE SMOOTH",
"131 332 LINE",
"140 364 LINE",
"131 352 OFFCURVE",
"116 345 OFFCURVE",
"100 345 CURVE SMOOTH",
"83 345 OFFCURVE",
"65 353 OFFCURVE",
"50 368 CURVE SMOOTH",
"30 389 OFFCURVE",
"18 420 OFFCURVE",
"18 456 CURVE SMOOTH",
"18 492 OFFCURVE",
"32 528 OFFCURVE",
"57 556 CURVE SMOOTH",
"83 584 OFFCURVE",
"117 601 OFFCURVE",
"153 604 CURVE SMOOTH",
"194 608 OFFCURVE",
"232 598 OFFCURVE",
"261 575 CURVE SMOOTH",
"265 572 OFFCURVE",
"269 568 OFFCURVE",
"272 565 CURVE SMOOTH",
"296 541 OFFCURVE",
"311 509 OFFCURVE",
"314 471 CURVE",
"314 471 OFFCURVE",
"322 394 OFFCURVE",
"326 350 CURVE",
"500 655 LINE",
"612 682 LINE",
"608 666 LINE SMOOTH"
);
},
{
closed = 1;
nodes = (
"297 555 OFFCURVE",
"230 602 OFFCURVE",
"154 595 CURVE SMOOTH",
"83 588 OFFCURVE",
"28 526 OFFCURVE",
"28 456 CURVE SMOOTH",
"28 388 OFFCURVE",
"70 355 OFFCURVE",
"100 355 CURVE SMOOTH",
"123 355 OFFCURVE",
"142 373 OFFCURVE",
"142 396 CURVE SMOOTH",
"142 419 OFFCURVE",
"123 438 OFFCURVE",
"100 438 CURVE SMOOTH",
"92 438 OFFCURVE",
"84 435 OFFCURVE",
"77 431 CURVE",
"66 441 OFFCURVE",
"59 457 OFFCURVE",
"59 474 CURVE SMOOTH",
"59 519 OFFCURVE",
"94 558 OFFCURVE",
"141 562 CURVE SMOOTH",
"172 565 OFFCURVE",
"202 552 OFFCURVE",
"220 528 CURVE",
"169 516 LINE",
"163 493 OFFCURVE",
"189 506 OFFCURVE",
"184 487 CURVE SMOOTH",
"106 205 LINE SMOOTH",
"97 173 OFFCURVE",
"82 189 OFFCURVE",
"71 149 CURVE",
"99 165 OFFCURVE",
"134 182 OFFCURVE",
"169 194 CURVE",
"242 458 LINE",
"264 222 LINE",
"272 223 OFFCURVE",
"291 227 OFFCURVE",
"308 230 CURVE",
"468 510 LINE",
"417 325 LINE SMOOTH",
"399 262 OFFCURVE",
"433 187 OFFCURVE",
"512 205 CURVE",
"476 209 OFFCURVE",
"466 267 OFFCURVE",
"476 302 CURVE SMOOTH",
"567 628 LINE SMOOTH",
"573 647 OFFCURVE",
"591 642 OFFCURVE",
"598 669 CURVE",
"506 646 LINE",
"319 318 LINE",
"305 470 LINE SMOOTH"
);
}
);
width = 600;
}
);
unicode = 0059;
},
{
glyphname = Z;
lastChange = "2013-09-07 20:22:01 -0500";
layers = (
{
layerId = "D4A81252-B0CF-4F3E-9514-5651FCA26467";
name = Regular;
paths = (
{
closed = 1;
nodes = (
"416 241 LINE",
"385 241 LINE",
"383 248 OFFCURVE",
"316 530 OFFCURVE",
"316 530 CURVE SMOOTH",
"215 530 LINE SMOOTH",
"215 530 OFFCURVE",
"147 248 OFFCURVE",
"146 241 CURVE",
"122 241 LINE",
"122 632 LINE",
"175 632 LINE",
"175 700 LINE",
"3 700 LINE",
"3 632 LINE",
"53 632 LINE",
"53 238 LINE",
"0 238 LINE",
"0 170 LINE",
"129 170 LINE",
"126 161 OFFCURVE",
"107 78 OFFCURVE",
"105 72 CURVE",
"53 72 LINE",
"53 0 LINE",
"232 0 LINE",
"232 72 LINE",
"181 72 LINE",
"183 81 OFFCURVE",
"202 164 OFFCURVE",
"204 170 CURVE",
"327 170 LINE",
"328 164 OFFCURVE",
"347 81 OFFCURVE",
"349 72 CURVE",
"299 72 LINE",
"299 0 LINE",
"477 0 LINE",
"477 72 LINE",
"425 72 LINE",
"424 78 OFFCURVE",
"404 161 OFFCURVE",
"402 170 CURVE",
"488 170 LINE",
"488 313 LINE",
"416 313 LINE"
);
},
{
closed = 1;
nodes = (
"265 439 LINE",
"310 241 LINE",
"220 241 LINE"
);
}
);
width = 600;
}
);
unicode = 005A;
},
{
glyphname = a;
lastChange = "2013-09-07 20:22:01 -0500";
layers = (
{
layerId = "D4A81252-B0CF-4F3E-9514-5651FCA26467";
name = Regular;
paths = (
{
closed = 1;
nodes = (
"242 152 LINE",
"197 258 LINE",
"339 347 LINE",
"290 434 LINE",
"427 500 LINE",
"383 578 LINE",
"489 625 LINE",
"450 682 LINE",
"441 695 LINE",
"1 0 LINE",
"217 136 LINE"
);
},
{
closed = 1;
nodes = (
"367 148 LINE",
"449 216 LINE",
"506 146 LINE SMOOTH",
"506 146 OFFCURVE",
"481 229 OFFCURVE",
"479 237 CURVE",
"482 243 OFFCURVE",
"502 274 OFFCURVE",
"502 274 CURVE SMOOTH",
"413 274 LINE SMOOTH",
"413 274 OFFCURVE",
"420 248 OFFCURVE",
"421 242 CURVE"
);
},
{
closed = 1;
nodes = (
"647 696 LINE",
"457 697 LINE",
"466 682 LINE",
"508 618 LINE",
"403 571 LINE",
"448 494 LINE",
"311 428 LINE",
"357 343 LINE",
"215 254 LINE",
"259 146 LINE",
"46 15 LINE",
"23 0 LINE",
"312 0 LINE",
"266 94 LINE",
"462 421 LINE",
"504 421 LINE",
"578 91 LINE",
"512 0 LINE",
"802 0 LINE"
);
}
);
width = 801;
}
);
unicode = 0061;
},
{
glyphname = b;
lastChange = "2013-09-07 20:21:49 -0500";
layers = (
{
layerId = "D4A81252-B0CF-4F3E-9514-5651FCA26467";
name = Regular;
paths = (
{
closed = 1;
nodes = (
"509 73 OFFCURVE",
"465 196 OFFCURVE",
"429 204 CURVE",
"442 211 OFFCURVE",
"526 230 OFFCURVE",
"526 320 CURVE SMOOTH",
"526 418 OFFCURVE",
"436 449 OFFCURVE",
"345 449 CURVE SMOOTH",
"326 449 OFFCURVE",
"291 448 OFFCURVE",
"256 446 CURVE SMOOTH",
"211 443 OFFCURVE",
"188 441 OFFCURVE",
"153 438 CURVE",
"153 405 LINE",
"202 405 OFFCURVE",
"212 394 OFFCURVE",
"212 341 CURVE SMOOTH",
"212 278 LINE",
"145 292 OFFCURVE",
"101 366 OFFCURVE",
"101 471 CURVE SMOOTH",
"101 581 OFFCURVE",
"153 659 OFFCURVE",
"229 659 CURVE SMOOTH",
"258 659 OFFCURVE",
"283 647 OFFCURVE",
"303 627 CURVE SMOOTH",
"323 606 OFFCURVE",
"337 576 OFFCURVE",
"343 540 CURVE",
"370 540 LINE",
"365 689 LINE",
"344 689 LINE",
"342 681 OFFCURVE",
"339 679 OFFCURVE",
"334 679 CURVE SMOOTH",
"319 679 OFFCURVE",
"286 700 OFFCURVE",
"225 700 CURVE SMOOTH",
"159 700 OFFCURVE",
"102 676 OFFCURVE",
"63 633 CURVE SMOOTH",
"23 590 OFFCURVE",
"0 530 OFFCURVE",
"0 459 CURVE SMOOTH",
"0 410 OFFCURVE",
"14 354 OFFCURVE",
"47 310 CURVE SMOOTH",
"79 266 OFFCURVE",
"132 234 OFFCURVE",
"208 234 CURVE SMOOTH",
"212 234 LINE",
"212 95 LINE SMOOTH",
"212 44 OFFCURVE",
"201 33 OFFCURVE",
"153 33 CURVE",
"153 0 LINE",
"367 0 LINE",
"367 33 LINE",
"323 33 OFFCURVE",
"307 39 OFFCURVE",
"307 92 CURVE SMOOTH",
"307 186 LINE",
"336 186 LINE",
"336 186 OFFCURVE",
"446 0 OFFCURVE",
"449 0 CURVE SMOOTH",
"581 0 LINE",
"581 33 LINE",
"581 33 OFFCURVE",
"556 29 OFFCURVE",
"533 49 CURVE"
);
},
{
closed = 1;
nodes = (
"24 610 OFFCURVE",
"139 655 OFFCURVE",
"139 655 CURVE SMOOTH",
"139 655 OFFCURVE",
"78 596 OFFCURVE",
"78 471 CURVE SMOOTH",
"78 355 OFFCURVE",
"135 283 OFFCURVE",
"135 283 CURVE SMOOTH",
"135 283 OFFCURVE",
"23 311 OFFCURVE",
"24 463 CURVE SMOOTH"
);
},
{
closed = 1;
nodes = (
"235 33 LINE",
"235 411 LINE",
"284 414 LINE",
"284 33 LINE"
);
},
{
closed = 1;
nodes = (
"498 244 OFFCURVE",
"407 226 OFFCURVE",
"407 226 CURVE SMOOTH",
"407 226 OFFCURVE",
"440 246 OFFCURVE",
"440 318 CURVE SMOOTH",
"441 390 OFFCURVE",
"408 411 OFFCURVE",
"408 411 CURVE SMOOTH",
"408 411 OFFCURVE",
"497 403 OFFCURVE",
"497 319 CURVE SMOOTH"
);
},
{
closed = 1;
nodes = (
"307 244 LINE",
"313 244 LINE SMOOTH",
"320 244 OFFCURVE",
"326 244 OFFCURVE",
"331 242 CURVE",
"337 242 OFFCURVE",
"343 240 OFFCURVE",
"348 238 CURVE",
"350 243 LINE SMOOTH",
"366 292 OFFCURVE",
"380 344 OFFCURVE",
"384 385 CURVE",
"357 385 LINE",
"344 349 OFFCURVE",
"327 321 OFFCURVE",
"307 303 CURVE",
"307 415 LINE",
"334 415 LINE SMOOTH",
"389 415 OFFCURVE",
"418 379 OFFCURVE",
"418 323 CURVE SMOOTH",
"418 251 OFFCURVE",
"388 219 OFFCURVE",
"307 220 CURVE"
);
},
{
closed = 1;
nodes = (
"452 33 OFFCURVE",
"389 145 OFFCURVE",
"361 185 CURVE",
"361 185 OFFCURVE",
"382 189 OFFCURVE",
"392 192 CURVE SMOOTH",
"402 194 OFFCURVE",
"408 197 OFFCURVE",
"408 197 CURVE",
"433 185 OFFCURVE",
"468 130 OFFCURVE",
"487 85 CURVE",
"507 44 OFFCURVE",
"521 33 OFFCURVE",
"521 33 CURVE SMOOTH",
"452 33 LINE SMOOTH"
);
}
);
width = 581;
}
);
unicode = 0062;
},
{
glyphname = c;
lastChange = "2013-09-07 20:02:13 -0500";
layers = (
{
layerId = "D4A81252-B0CF-4F3E-9514-5651FCA26467";
name = Regular;
paths = (
{
closed = 1;
nodes = (
"211 318 LINE",
"211 318 OFFCURVE",
"300 312 OFFCURVE",
"328 329 CURVE",
"323 313 OFFCURVE",
"324 262 OFFCURVE",
"328 254 CURVE",
"293 272 OFFCURVE",
"211 265 OFFCURVE",
"211 265 CURVE",
"211 194 LINE",
"343 194 LINE",
"372 226 LINE",
"372 348 LINE",
"339 386 LINE",
"319 388 OFFCURVE",
"250 388 OFFCURVE",
"211 388 CURVE"
);
},
{
closed = 1;
nodes = (
"33 654 OFFCURVE",
"62 681 OFFCURVE",
"73 700 CURVE",
"99 688 OFFCURVE",
"343 689 OFFCURVE",
"371 700 CURVE",
"389 675 OFFCURVE",
"407 661 OFFCURVE",
"433 653 CURVE",
"430 629 OFFCURVE",
"431 620 OFFCURVE",
"439 601 CURVE",
"371 601 LINE",
"343 633 LINE",
"104 633 LINE",
"72 605 LINE",
"72 478 LINE",
"104 448 LINE",
"143 446 LINE",
"143 494 OFFCURVE",
"144 502 OFFCURVE",
"109 512 CURVE",
"121 535 OFFCURVE",
"123 538 OFFCURVE",
"126 566 CURVE",
"156 556 OFFCURVE",
"463 562 OFFCURVE",
"476 569 CURVE",
"474 539 OFFCURVE",
"491 482 OFFCURVE",
"502 461 CURVE",
"435 461 LINE",
"431 484 OFFCURVE",
"417 502 OFFCURVE",
"393 507 CURVE",
"211 507 LINE",
"211 446 LINE",
"211 446 OFFCURVE",
"353 442 OFFCURVE",
"371 449 CURVE",
"381 425 OFFCURVE",
"414 389 OFFCURVE",
"439 379 CURVE",
"431 330 OFFCURVE",
"432 245 OFFCURVE",
"439 194 CURVE",
"412 180 OFFCURVE",
"385 153 OFFCURVE",
"371 126 CURVE",
"338 136 OFFCURVE",
"211 131 OFFCURVE",
"211 131 CURVE",
"211 93 LINE",
"217 67 OFFCURVE",
"231 61 OFFCURVE",
"256 59 CURVE",
"256 59 OFFCURVE",
"236 22 OFFCURVE",
"235 0 CURVE",
"120 0 LINE",
"120 21 OFFCURVE",
"100 59 OFFCURVE",
"100 59 CURVE",
"122 60 OFFCURVE",
"140 73 OFFCURVE",
"143 93 CURVE",
"143 131 LINE",
"143 131 OFFCURVE",
"103 133 OFFCURVE",
"73 126 CURVE",
"63 147 OFFCURVE",
"30 184 OFFCURVE",
"5 194 CURVE",
"11 208 OFFCURVE",
"8 301 OFFCURVE",
"0 321 CURVE",
"73 321 LINE",
"72 226 LINE",
"101 194 LINE",
"143 194 LINE",
"143 388 LINE",
"143 388 OFFCURVE",
"106 390 OFFCURVE",
"73 388 CURVE",
"63 406 OFFCURVE",
"34 437 OFFCURVE",
"5 451 CURVE",
"14 485 OFFCURVE",
"15 608 OFFCURVE",
"5 640 CURVE"
);
}
);
width = 502;
}
);
unicode = 0063;
},
{
glyphname = d;
lastChange = "2013-09-07 20:21:49 -0500";
layers = (
{
layerId = "D4A81252-B0CF-4F3E-9514-5651FCA26467";
name = Regular;
paths = (
{
closed = 1;
nodes = (
"126 560 LINE SMOOTH",
"124 560 OFFCURVE",
"124 556 OFFCURVE",
"126 556 CURVE SMOOTH",
"128 556 OFFCURVE",
"159 553 OFFCURVE",
"159 525 CURVE SMOOTH",
"159 443 LINE",
"122 443 OFFCURVE",
"99 442 OFFCURVE",
"95 443 CURVE SMOOTH",
"81 443 OFFCURVE",
"78 454 OFFCURVE",
"78 461 CURVE SMOOTH",
"78 462 OFFCURVE",
"78 532 OFFCURVE",
"79 575 CURVE SMOOTH",
"79 611 OFFCURVE",
"98 629 OFFCURVE",
"132 629 CURVE SMOOTH",
"288 630 LINE SMOOTH",
"298 630 OFFCURVE",
"306 626 OFFCURVE",
"306 614 CURVE SMOOTH",
"306 603 OFFCURVE",
"293 599 OFFCURVE",
"291 598 CURVE",
"290 598 OFFCURVE",
"290 596 OFFCURVE",
"291 596 CURVE SMOOTH",
"383 596 LINE",
"382 626 LINE SMOOTH",
"381 648 OFFCURVE",
"367 700 OFFCURVE",
"299 700 CURVE SMOOTH",
"116 700 LINE SMOOTH",
"49 700 OFFCURVE",
"2 652 OFFCURVE",
"2 589 CURVE",
"3 587 LINE",
"2 549 OFFCURVE",
"1 496 OFFCURVE",
"1 462 CURVE SMOOTH",
"1 419 OFFCURVE",
"38 376 OFFCURVE",
"89 376 CURVE SMOOTH",
"292 376 LINE SMOOTH",
"306 376 OFFCURVE",
"310 363 OFFCURVE",
"310 358 CURVE SMOOTH",
"310 356 OFFCURVE",
"311 293 OFFCURVE",
"311 247 CURVE",
"310 247 LINE",
"310 218 OFFCURVE",
"291 195 OFFCURVE",
"261 195 CURVE SMOOTH",
"231 195 LINE",
"231 347 LINE",
"159 348 LINE",
"159 195 LINE",
"122 195 OFFCURVE",
"97 194 OFFCURVE",
"94 194 CURVE SMOOTH",
"79 194 OFFCURVE",
"76 207 OFFCURVE",
"76 213 CURVE SMOOTH",
"76 282 LINE SMOOTH",
"76 302 OFFCURVE",
"105 308 OFFCURVE",
"105 308 CURVE",
"104 310 LINE",
"0 310 LINE",
"0 204 LINE SMOOTH",
"0 166 OFFCURVE",
"31 124 OFFCURVE",
"77 124 CURVE SMOOTH",
"158 124 LINE",
"157 49 LINE SMOOTH",
"157 20 OFFCURVE",
"139 7 OFFCURVE",
"123 2 CURVE",
"122 2 OFFCURVE",
"122 0 OFFCURVE",
"123 0 CURVE SMOOTH",
"369 0 LINE SMOOTH",
"470 0 OFFCURVE",
"526 49 OFFCURVE",
"526 149 CURVE SMOOTH",
"526 412 LINE SMOOTH",
"526 512 OFFCURVE",
"470 560 OFFCURVE",
"370 560 CURVE SMOOTH"
);
},
{
closed = 1;
nodes = (
"456 137 LINE SMOOTH",
"456 91 OFFCURVE",
"420 67 OFFCURVE",
"374 67 CURVE SMOOTH",
"322 67 OFFCURVE",
"231 66 OFFCURVE",
"231 66 CURVE",
"232 124 LINE",
"269 124 LINE SMOOTH",
"336 124 OFFCURVE",
"380 172 OFFCURVE",
"380 236 CURVE",
"379 236 LINE",
"383 305 OFFCURVE",
"381 355 OFFCURVE",
"381 363 CURVE SMOOTH",
"381 390 OFFCURVE",
"359 443 OFFCURVE",
"294 443 CURVE SMOOTH",
"233 443 LINE",
"233 498 LINE",
"377 498 LINE SMOOTH",
"425 498 OFFCURVE",
"456 464 OFFCURVE",
"456 419 CURVE SMOOTH"
);
}
);
width = 600;
}
);
unicode = 0064;
},
{
glyphname = e;
lastChange = "2013-09-07 20:21:49 -0500";
layers = (
{
layerId = "D4A81252-B0CF-4F3E-9514-5651FCA26467";
name = Regular;
paths = (
{
closed = 1;
nodes = (
"577 322 OFFCURVE",
"454 259 OFFCURVE",
"442 418 CURVE SMOOTH",
"431 563 OFFCURVE",
"429 587 OFFCURVE",
"394 608 CURVE",
"387 680 LINE SMOOTH",
"385 690 OFFCURVE",
"375 699 OFFCURVE",
"362 698 CURVE SMOOTH",
"254 684 LINE SMOOTH",
"245 683 OFFCURVE",
"237 675 OFFCURVE",
"236 665 CURVE",
"240 665 OFFCURVE",
"344 626 OFFCURVE",
"346 624 CURVE",
"346 624 OFFCURVE",
"356 619 OFFCURVE",
"356 617 CURVE",
"356 617 OFFCURVE",
"359 613 OFFCURVE",
"359 609 CURVE SMOOTH",
"359 605 OFFCURVE",
"358 590 OFFCURVE",
"356 587 CURVE",
"356 587 OFFCURVE",
"337 533 OFFCURVE",
"335 525 CURVE",
"338 516 OFFCURVE",
"340 507 OFFCURVE",
"340 499 CURVE SMOOTH",
"340 472 OFFCURVE",
"322 444 OFFCURVE",
"309 418 CURVE SMOOTH",
"304 407 OFFCURVE",
"298 398 OFFCURVE",
"293 387 CURVE SMOOTH",
"272 333 OFFCURVE",
"261 300 OFFCURVE",
"261 278 CURVE SMOOTH",
"261 265 OFFCURVE",
"264 257 OFFCURVE",
"270 249 CURVE",
"270 263 OFFCURVE",
"273 274 OFFCURVE",
"274 279 CURVE",
"288 275 OFFCURVE",
"329 262 OFFCURVE",
"352 258 CURVE",
"352 258 OFFCURVE",
"350 216 OFFCURVE",
"356 184 CURVE",
"358 183 OFFCURVE",
"360 180 OFFCURVE",
"362 178 CURVE",
"364 177 OFFCURVE",
"367 175 OFFCURVE",
"368 173 CURVE",
"416 171 OFFCURVE",
"471 159 OFFCURVE",
"507 146 CURVE SMOOTH",
"563 128 OFFCURVE",
"659 118 OFFCURVE",
"710 156 CURVE",
"725 164 OFFCURVE",
"706 231 OFFCURVE",
"647 272 CURVE SMOOTH"
);
},
{
closed = 1;
nodes = (
"678 157 OFFCURVE",
"655 151 OFFCURVE",
"629 149 CURVE",
"623 148 OFFCURVE",
"620 151 OFFCURVE",
"619 155 CURVE",
"600 206 LINE",
"598 209 OFFCURVE",
"598 214 OFFCURVE",
"603 216 CURVE",
"646 235 LINE SMOOTH",
"650 237 OFFCURVE",
"656 242 OFFCURVE",
"661 236 CURVE SMOOTH",
"686 209 OFFCURVE",
"697 179 OFFCURVE",
"697 169 CURVE SMOOTH"
);
},
{
closed = 1;
nodes = (
"350 171 OFFCURVE",
"318 197 OFFCURVE",
"276 227 CURVE SMOOTH",
"234 255 OFFCURVE",
"244 298 OFFCURVE",
"281 393 CURVE SMOOTH",
"300 434 OFFCURVE",
"344 488 OFFCURVE",
"318 524 CURVE",
"344 590 LINE SMOOTH",
"348 601 OFFCURVE",
"343 614 OFFCURVE",
"329 618 CURVE SMOOTH",
"229 654 LINE SMOOTH",
"218 658 OFFCURVE",
"206 652 OFFCURVE",
"203 641 CURVE SMOOTH",
"178 573 LINE",
"159 569 OFFCURVE",
"143 542 OFFCURVE",
"123 480 CURVE SMOOTH",
"95 394 OFFCURVE",
"79 322 OFFCURVE",
"39 282 CURVE SMOOTH",
"-15 223 OFFCURVE",
"-21 144 OFFCURVE",
"96 122 CURVE SMOOTH",
"165 110 OFFCURVE",
"245 39 OFFCURVE",
"312 11 CURVE SMOOTH",
"328 5 OFFCURVE",
"356 -9 OFFCURVE",
"442 13 CURVE",
"460 16 OFFCURVE",
"452 99 OFFCURVE",
"356 167 CURVE SMOOTH"
);
},
{
closed = 1;
nodes = (
"53 151 OFFCURVE",
"30 165 OFFCURVE",
"23 187 CURVE SMOOTH",
"16 209 OFFCURVE",
"25 236 OFFCURVE",
"48 263 CURVE",
"74 254 OFFCURVE",
"95 241 OFFCURVE",
"112 231 CURVE",
"102 207 OFFCURVE",
"92 176 OFFCURVE",
"90 143 CURVE"
);
},
{
closed = 1;
nodes = (
"400 21 OFFCURVE",
"377 19 OFFCURVE",
"361 19 CURVE SMOOTH",
"356 19 OFFCURVE",
"350 21 OFFCURVE",
"350 29 CURVE SMOOTH",
"344 81 LINE",
"344 87 OFFCURVE",
"346 91 OFFCURVE",
"352 91 CURVE SMOOTH",
"368 91 OFFCURVE",
"387 93 OFFCURVE",
"392 95 CURVE SMOOTH",
"401 98 OFFCURVE",
"403 96 OFFCURVE",
"404 95 CURVE",
"424 67 OFFCURVE",
"431 42 OFFCURVE",
"431 31 CURVE SMOOTH"
);
}
);
width = 720;
}
);
unicode = 0065;
},
{
glyphname = z;
lastChange = "2013-09-07 18:07:49 -0500";
layers = (
{
layerId = "D4A81252-B0CF-4F3E-9514-5651FCA26467";
name = Regular;
paths = (
{
closed = 1;
nodes = (
"952 494 OFFCURVE",
"938 500 OFFCURVE",
"923 500 CURVE SMOOTH",
"681 500 LINE",
"820 267 LINE",
"833 266 LINE",
"840 256 LINE",
"840 245 LINE",
"849 244 LINE",
"857 233 LINE",
"857 224 LINE",
"866 221 LINE",
"866 221 OFFCURVE",
"876 212 OFFCURVE",
"876 211 CURVE",
"876 212 OFFCURVE",
"876 190 OFFCURVE",
"876 190 CURVE SMOOTH",
"876 190 OFFCURVE",
"895 172 OFFCURVE",
"912 165 CURVE SMOOTH",
"925 160 OFFCURVE",
"926 141 OFFCURVE",
"933 130 CURVE SMOOTH",
"942 115 OFFCURVE",
"955 108 OFFCURVE",
"953 100 CURVE SMOOTH",
"947 77 OFFCURVE",
"923 39 OFFCURVE",
"901 37 CURVE",
"901 37 OFFCURVE",
"847 37 OFFCURVE",
"816 37 CURVE",
"816 0 LINE",
"923 0 LINE SMOOTH",
"954 0 OFFCURVE",
"979 25 OFFCURVE",
"979 56 CURVE SMOOTH",
"979 444 LINE SMOOTH",
"979 459 OFFCURVE",
"974 474 OFFCURVE",
"963 484 CURVE SMOOTH"
);
},
{
closed = 1;
nodes = (
"56 500 LINE SMOOTH",
"41 500 OFFCURVE",
"28 494 OFFCURVE",
"16 484 CURVE SMOOTH",
"6 474 OFFCURVE",
"0 459 OFFCURVE",
"0 444 CURVE SMOOTH",
"0 56 LINE SMOOTH",
"0 41 OFFCURVE",
"6 28 OFFCURVE",
"16 16 CURVE SMOOTH",
"28 6 OFFCURVE",
"41 0 OFFCURVE",
"56 0 CURVE SMOOTH",
"408 0 LINE",
"400 15 OFFCURVE",
"389 31 OFFCURVE",
"386 37 CURVE",
"344 37 LINE",
"344 141 OFFCURVE",
"380 198 OFFCURVE",
"422 210 CURVE",
"427 211 OFFCURVE",
"425 240 OFFCURVE",
"418 248 CURVE",
"418 248 OFFCURVE",
"397 248 OFFCURVE",
"393 249 CURVE SMOOTH",
"388 250 OFFCURVE",
"392 256 OFFCURVE",
"392 256 CURVE",
"411 297 LINE",
"409 309 LINE",
"336 309 LINE SMOOTH",
"335 309 OFFCURVE",
"396 351 OFFCURVE",
"396 351 CURVE",
"399 462 OFFCURVE",
"512 470 OFFCURVE",
"581 425 CURVE SMOOTH",
"621 397 OFFCURVE",
"624 344 OFFCURVE",
"621 308 CURVE",
"621 305 OFFCURVE",
"611 306 OFFCURVE",
"611 306 CURVE SMOOTH",
"611 306 OFFCURVE",
"604 266 OFFCURVE",
"621 266 CURVE SMOOTH",
"702 266 LINE SMOOTH",
"734 267 OFFCURVE",
"765 245 OFFCURVE",
"765 245 CURVE",
"773 273 LINE",
"598 500 LINE"
);
},
{
closed = 1;
nodes = (
"96 79 OFFCURVE",
"78 97 OFFCURVE",
"78 119 CURVE",
"77 139 OFFCURVE",
"96 157 OFFCURVE",
"116 157 CURVE SMOOTH",
"138 157 OFFCURVE",
"156 139 OFFCURVE",
"156 119 CURVE SMOOTH",
"156 97 OFFCURVE",
"138 79 OFFCURVE",
"116 79 CURVE SMOOTH"
);
}
);
width = 979;
}
);
unicode = 007A;
},
